<?xml version="1.0" encoding="UTF-8"?>
<!-- Created with Inkscape (http://www.inkscape.org/) -->
<svg width="793.6" height="371.84" version="1.1" viewBox="0 0 793.6 371.84" xmlns="http://www.w3.org/2000/svg">
    <g stroke-width=".32">
        <path d="m3.3122 273.31c-0.072319-0.18925-0.094144-9.1281-0.0485-19.864l0.082988-19.52 790.24-0.1602v40.051l-5.04-0.0793c-3.17-0.0499-5.1272-0.2078-5.2751-0.4256-0.15959-0.23506-0.23668-0.21781-0.24 0.0537-4e-3 0.31392-2.5012 0.38422-11.605 0.32668l-11.6-0.0733 20.8-0.3467-10.267-0.0733c-5.6467-0.0403-10.375 0.0347-10.507 0.16668-0.36896 0.36914-1.9178 0.32884-2.1819-0.0568-0.15876-0.23179-0.23668-0.21513-0.24 0.0513-4e-3 0.3079-3.6239 0.38844-16.487 0.36681-9.3373-0.0157-16.558-0.15204-16.659-0.31453-0.21366-0.34571-5.0519-0.38771-5.3928-0.0468-0.132 0.132-5.376 0.26084-11.653 0.28632-6.2774 0.0255-11.125-0.0724-10.773-0.21751 0.51869-0.21381 0.53741-0.26809 0.0989-0.28632-0.2976-0.0124-0.62029 0.10565-0.71709 0.26226-0.22777 0.36856-15.139 0.27661-16.152-0.0996-0.54214-0.20134-0.70531-0.18126-0.55136 0.0678 0.15431 0.24968-0.655 0.34257-2.75 0.3156-2.8033-0.0361-2.9556-0.46178-0.19212-0.5367 1.5625-0.0424 6.1185-2.3669 7.6596-3.908 1.4483-1.4483 2.6346-3.9151 3.1246-6.4972 0.45587-2.4026 0.49984-25.982 0.0489-26.261-0.17066-0.10548-1.6862-0.23276-3.368-0.28284-2.8704-0.0855-3.0668-0.0504-3.207 0.5729-0.0822 0.36518-0.19895 5.848-0.25952 12.184-0.11024 11.527-0.19392 13.065-0.79258 14.56-0.50502 1.2614-2.264 2.8452-3.5377 3.1854-1.6993 0.45382-6.4142 0.49325-6.8502 0.0573-0.19946-0.19945-0.62918-0.36264-0.95498-0.36264-0.78985 0-2.7103-2.1211-3.187-3.52-0.257-0.7541-0.43901-5.2495-0.55719-13.76l-0.17549-12.64h-6.72l8e-3 13.12c7e-3 12.435 0.22205 16.672 0.82628 16.299 0.2606-0.16106 1.3934 2.0258 1.2955 2.501-0.0272 0.132 0.12388 0.204 0.33565 0.16 0.21178-0.044 0.39178 0.208 0.4 0.56 8e-3 0.352 0.20266 0.60143 0.4321 0.55428 0.22941-0.0471 0.64877 0.14593 0.9319 0.42904 0.43735 0.43737 0.44682 0.55996 0.0629 0.81544-0.30931 0.20581-0.17517 0.23642 0.42512 0.097 0.62493-0.14513 0.93024-0.065 1.0622 0.27882 0.10182 0.26537 0.71334 0.58158 1.3589 0.7027 0.99017 0.18575 1.0943 0.27828 0.66582 0.59145-0.41142 0.30069-0.19776 0.37803 1.1241 0.40695 0.8976 0.0197 2.784 0.17949 4.192 0.35524l2.56 0.31954-2.64 0.0448c-1.452 0.0246-2.64-0.0734-2.64-0.21787 0-0.14445-0.756-0.16063-1.68-0.036-2.7887 0.37626-21.919 0.3681-22.153-9e-3 -0.11287-0.18258-0.34919-0.33196-0.52519-0.33196s-0.24553 0.12052-0.15449 0.26783c0.091 0.14731-0.80045 0.2132-1.9811 0.14643-1.1807-0.0668-4.8827-0.16134-8.2267-0.21014l-6.08-0.0888 11.2 0.40579-8.08 0.0159c-5.7316 0.0113-8.0814-0.0877-8.0849-0.34058-3e-3 -0.20935-0.11626-0.18087-0.27463 0.069-0.21337 0.33654-1.6551 0.40645-6.8968 0.33441-3.6449-0.0501-6.6978-0.20556-6.7843-0.34548s-0.40074-0.2522-0.69834-0.24951c-0.37094 3e-3 -0.42051 0.0816-0.1576 0.2487 0.21095 0.13409-1.661 0.24884-4.16 0.255-3.3844 8e-3 -4.0537-0.0479-2.6235-0.22047 3.7706-0.45495 4.96-0.69581 4.96-1.0044 0-0.17776 0.38036-0.22473 0.88-0.10867 0.61085 0.14189 0.73997 0.11132 0.42215-0.0999-0.34595-0.22996-0.17063-0.35825 0.71718-0.52481 0.64631-0.12124 1.1034-0.33635 1.0159-0.47802-0.0875-0.14167 0.3097-0.54882 0.88282-0.90477 2.4425-1.517 6.322-6.8773 6.322-8.7351 0-0.32578 0.144-0.59234 0.32-0.59234s0.32-0.54955 0.32-1.2212c0-0.67167 0.15316-2.0497 0.34032-3.0623 0.34397-1.8606-0.11478-7.6291-0.66454-8.3565-0.22717-0.30056-0.71466-2.1918-0.65872-2.5556 0.0141-0.0915-0.40326-0.7583-0.92742-1.4819-0.80522-1.1115-0.89655-1.4216-0.58893-1.999 0.32713-0.6141 0.31059-0.63932-0.16317-0.24854-0.46166 0.38083-0.5975 0.31145-1.0924-0.55798-0.31085-0.54608-0.76916-0.99379-1.0185-0.9949-0.24931-9.6e-4 -0.3576-0.0978-0.24058-0.21476 0.117-0.11701-0.12764-0.44101-0.54364-0.72-0.416-0.279-1.37-0.91658-2.1199-1.4169-3.3746-2.2511-7.8736-3.1515-12.483-2.4981-1.5253 0.21623-2.4391 0.22789-2.5073 0.032-0.059-0.16954-0.2544-0.21736-0.43418-0.10626-0.21069 0.13022-0.1855 0.28932 0.0709 0.44777 0.26141 0.16155-0.093 0.46282-1.0341 0.87915-1.7962 0.79451-4.7201 2.791-5.2999 3.619-0.24147 0.34475-0.59546 0.53016-0.78659 0.41202-0.20519-0.1268-0.25575-0.0663-0.12346 0.14779 0.28451 0.46035-1.0785 2.3382-1.5055 2.0743-0.17524-0.10828-0.22544-0.0462-0.11159 0.13802 0.11383 0.1842-0.32688 1.4664-0.97933 2.8494l-1.1863 2.5145 5e-3 5.92c4e-3 5.465 0.0587 6.0231 0.70585 7.2615 0.38557 0.73782 0.61677 1.6018 0.5138 1.92-0.15639 0.48318-0.13037 0.49941 0.15804 0.0985 0.29354-0.40809 0.35357-0.38412 0.40058 0.16 0.0304 0.352 0.0489 0.81845 0.041 1.0366-8e-3 0.2181 0.0972 0.32769 0.23335 0.24352 0.13619-0.0842 0.42557 0.0614 0.64304 0.32343 0.2175 0.26206 0.28182 0.47648 0.14294 0.47648s0.27549 0.528 0.9208 1.1733c0.64535 0.64534 1.1734 1.265 1.1734 1.377 0 0.33741 3.5839 2.7424 5.0249 3.3719 0.73972 0.32318 1.2795 0.69344 1.1996 0.82281-0.0799 0.12937 0.10684 0.17678 0.41507 0.10534 0.30825-0.0714 1.3524 0.061 2.3204 0.29431l1.76 0.42419-2.312 0.0379c-1.2716 0.0209-2.3868-0.0831-2.4783-0.23115-0.0915-0.148-0.70668-0.14721-1.3672 2e-3 -0.66048 0.14896-17.768 0.26535-38.016 0.25863-35.734-0.0118-36.816-0.0298-36.86-0.61088-0.0413-0.54816 0.18377-0.59068 2.6672-0.50391 1.4918 0.0521 2.7734-4e-3 2.8481-0.12481 0.0746-0.12077 0.15143-3.1934 0.17066-6.828 0.0282-5.2977 0.12013-6.6084 0.46438-6.6084 0.23619 0 0.50208 0.18 0.59085 0.4 0.12912 0.32 0.16646 0.32 0.18669 0 0.0189-0.30102 1.2079-0.4 4.8043-0.4 4.5243 0 7.8118-0.40969 10.018-1.2484 1.3382-0.50877 3.0911-2.5387 4.2492-4.9206 1.0512-2.1621 1.0557-2.1662 1.4078-1.28 0.29178 0.73437 0.31738 0.74986 0.14707 0.089-0.32412-1.2576-0.62547-6.0808-0.3799-6.0804 0.12157 2e-4 0.0144-0.39563-0.23802-0.87963-0.25248-0.484-0.45996-1.0834-0.46102-1.3319 0-0.24854-0.36925-1.0786-0.81811-1.8445-0.44887-0.76593-0.71459-1.5568-0.59056-1.7576 0.13929-0.22538 0.0833-0.27705-0.14634-0.13511-0.48397 0.2991-1.437-0.65399-1.1379-1.138 0.14419-0.23336 0.09-0.2855-0.14544-0.13996-0.35341 0.2184-2.6465-0.9516-2.8643-1.4614-0.0554-0.12961-0.29612-0.16065-0.535-0.069-0.23888 0.0917-0.73536 6e-3 -1.1033-0.19137-0.73651-0.39418-19.589-0.53844-20.581-0.1575-0.30777 0.1181-0.55958 0.42382-0.55958 0.67938 0 0.25555 0.1463 0.37422 0.32515 0.2637 0.21872-0.13518 0.31997 5.4618 0.30938 17.101-0.01 10.915-0.12996 17.302-0.32512 17.302-0.17018 0-0.0574 0.25992 0.25059 0.5776 0.308 0.31768 0.64797 0.44961 0.75545 0.29317 0.10752-0.15644 0.28122-0.061 0.38605 0.21215 0.1048 0.27312 0.0888 0.55769-0.0355 0.63238-0.51206 0.30765-43.684 0.17503-44.265-0.13598-0.33075-0.17701-0.60137-0.20794-0.60137-0.0687 0 0.13921-0.80608 0.29731-1.7913 0.35133-1.4113 0.0774-1.7377 9e-3 -1.5386-0.32184 0.19251-0.32 0.14279-0.33932-0.2087-0.0811-0.29344 0.21558-3.1992 0.34089-7.9814 0.34421-4.7651 3e-3 -6.5236-0.0697-4.8-0.19938l2.72-0.20459-2.8-0.0596c-1.54-0.0328-2.8002 0.0484-2.8005 0.18039 0 0.38119-4.2483 0.47208-5.1974 0.11122-0.57107-0.21712-0.92576-0.21948-1.0571-7e-3 -0.18044 0.29196-38.13 0.2229-66.065-0.12022-9.044-0.11109-9.0547-0.11045-1.28 0.0772 4.3992 0.10618-4.4837 0.20841-20.24 0.23293-16.413 0.0255-28.155-0.0763-28.259-0.24519-0.0982-0.1589-0.56608-0.27456-1.0397-0.25701l-0.86112 0.0319 0.8 0.25633c0.632 0.20241 0.45139 0.2629-0.86013 0.2881-1.4274 0.0274-1.6538-0.0509-1.6156-0.55921 0.0394-0.52324 0.32189-0.58568 2.4601-0.54384 1.3286 0.026 2.5908-0.0817 2.805-0.23928 0.49696-0.3657 0.58474-35.31 0.0902-35.906-0.21911-0.26402-1.4651-0.34517-4.1278-0.26884-2.0977 0.0601-4.0996 0.10934-4.4486 0.10934-0.64486 0-0.96029 0.48954-1.2307 1.9101-0.0827 0.43454-0.26924 0.93854-0.41449 1.12-0.14525 0.18147-0.36443 0.7992-0.48708 1.3727-0.12264 0.57354-0.34184 0.96934-0.4871 0.87956-0.14527-0.0898-0.18882 0.12471-0.0968 0.47664 0.092 0.35193-0.053 0.97609-0.32221 1.387-0.26925 0.41092-0.56698 1.1672-0.66162 1.6806-0.33103 1.7955-1.9376 5.8482-2.2434 5.6592-0.17852-0.11032-0.22057 0.0386-0.0998 0.35341 0.11484 0.29927-0.015 1.1509-0.28865 1.8925-0.2736 0.7416-0.6486 1.8884-0.83334 2.5484-0.18475 0.66-0.44604 1.2-0.58065 1.2-0.13462 0-0.32265 0.396-0.41785 0.88-0.5341 2.7154-0.94817 3.9744-1.1825 3.5952-0.15214-0.24617-0.25305 0.0645-0.25305 0.77899 0 1.7652-0.25503 1.7078-0.85954-0.19349-0.29741-0.9354-0.74408-2.1545-0.9926-2.7091s-0.45186-1.1808-0.45186-1.3916-0.20358-0.83704-0.4524-1.3916-0.62124-1.5844-0.8276-2.2884-0.59344-1.7647-0.86019-2.357c-0.29258-0.64975-0.40876-1.475-0.29285-2.08 0.11646-0.60789 0.084-0.8352-0.0823-0.57706-0.28071 0.43562-1.1064-1.2083-1.6605-3.3059-0.13947-0.528-0.63217-1.968-1.0949-3.2s-0.9638-2.6-1.1135-3.04c-0.54291-1.5955-1.3096-3.2005-1.54-3.224-2.0163-0.20499-9.038-0.0622-9.0455 0.18396-5e-3 0.176-9.6e-4 8.204 0.01 17.84 0.0154 14.024-0.0625 17.522-0.39026 17.53-0.2252 5e-3 -0.13641 0.16829 0.19733 0.36209 0.84211 0.489 6.2407 0.53327 6.6379 0.0544 0.19215-0.23162 0.27302-5.1327 0.21266-12.888-0.0768-9.8678-0.0171-12.327 0.28212-11.626 0.77924 1.8238 2.0166 5.4034 2.2151 6.4082 0.11298 0.572 0.33143 1.04 0.48543 1.04s0.28 0.3515 0.28 0.78111c0 0.42962 0.15756 0.8785 0.35013 0.99751 0.19257 0.11902 0.28359 0.5645 0.20226 0.98997-0.0813 0.42545-0.0704 0.69609 0.0243 0.60141 0.30764-0.30764 1.9822 4.4469 1.7991 5.1082-0.11558 0.4174-0.0806 0.5031 0.10013 0.24508 0.35276-0.50375 1.1915 1.6594 0.85467 2.2043-0.14259 0.23071-0.0896 0.28485 0.13996 0.14298 0.22954-0.14187 0.36944 9.6e-4 0.36944 0.37722 0 0.33306 0.0956 0.70111 0.21235 0.8179 0.11679 0.11679 0.47593 0.96082 0.79809 1.8756 0.45654 1.2964 0.49793 1.719 0.18765 1.9161-0.28249 0.17939-0.23547 0.25422 0.16191 0.2577 0.308 3e-3 0.56 0.2209 0.56 0.4849s0.1525 0.48 0.33889 0.48 0.24989 0.144 0.14111 0.32c-0.10877 0.176-0.0453 0.32 0.14112 0.32 0.18638 0 0.33888-0.108 0.33888-0.24s0.77825-0.24 1.7294-0.24c0.95119 0 1.6628 0.10779 1.5814 0.23952-0.0814 0.13174 0.17685 0.20374 0.57392 0.16 0.88276-0.0972 1.8123-0.90313 1.6345-1.4171-0.0718-0.20768 0.0895-0.85568 0.35852-1.44s0.88349-2.2864 1.3655-3.7824c0.48201-1.496 0.96973-2.792 1.0838-2.88 0.11408-0.088 0.36486-0.736 0.55728-1.44 0.62961-2.3035 1.2381-3.6904 1.5106-3.4429 0.14715 0.13361 0.18 0.0889 0.073-0.0994-0.27627-0.48612 0.54472-3.0931 0.87835-2.7892 0.15194 0.13836 0.18576 0.0928 0.0752-0.10119-0.11056-0.19401 0.0884-1.13 0.44221-2.08 0.35379-0.94999 0.92394-2.5108 1.267-3.4686 0.34307-0.95774 0.76915-1.8867 0.94679-2.0643 0.21731-0.21731 0.3142 3.6672 0.29616 11.873-0.0179 8.19 0.087 12.408 0.31968 12.843 0.19056 0.35609 0.34649 0.71596 0.34649 0.79972 0 0.27635-26.064 0.12703-26.818-0.15363-0.45019-0.16747-0.66598-0.15765-0.55299 0.0252 0.29216 0.47272-23.278 0.38731-23.584-0.0855-0.1792-0.27612-0.32943-0.24851-0.56423 0.10369-0.28444 0.42667-0.35501 0.42667-0.6351 0-0.17785-0.27092-0.31723-0.31857-0.32-0.10938-6e-3 0.4627-21.976 0.54481-22.261 0.0832-0.1101-0.17814-0.42082-0.16808-0.7822 0.0253-0.78939 0.42247-3.1073 0.41238-3.3712-0.0147-0.1334-0.21585-0.3399-0.2264-0.57889-0.0296-0.50387 0.41499-36.923 0.44653-37.179 0.0322-0.10439-0.1689-0.3613-0.30489-0.57091-0.30219-0.23131 3e-3 -0.19244 0.13136 0.0989 0.32662 0.32444 0.21745-4.4722 0.3031-14.8 0.26425-8.404-0.0316-15.28-0.17859-15.28-0.32662s-0.324-0.25903-0.72-0.24666c-0.68701 0.0215-0.69068 0.0351-0.08 0.29751 0.48154 0.20693 0.26366 0.28058-0.88 0.2975-0.92391 0.0137-1.52-0.11836-1.52-0.33668 0-0.24265-0.12979-0.2566-0.4-0.043-0.58419 0.46177-56.758 0.53775-57.043 0.0771-0.13852-0.22414-0.34475-0.23785-0.58538-0.0389-0.20433 0.16892-0.91195 0.25725-1.5725 0.19628-0.66054-0.061-1.7045-0.15868-2.32-0.21714-0.61546-0.0585-1.119-4e-3 -1.119 0.12183 0 0.31555-8.9344 0.24328-9.1304-0.0738-0.087-0.14082-0.56192-0.14026-1.0553 1e-3 -0.4934 0.1415-3.4794 0.26557-6.6357 0.2757-5.0801 0.0163-5.6468-0.033-4.9386-0.42951 1.048-0.58678 0.72064-0.58358-0.96 9e-3 -1.0342 0.36487-2.8844 0.48-7.714 0.48h-6.3535l0.10874-0.93394c0.0598-0.51367-0.0128-1.1257-0.16135-1.36-0.17218-0.2716-0.27187 0.0549-0.27499 0.90054l-0.0049 1.3266-7.2-0.0412 5.44-0.38687-2.8008-0.15253c-1.645-0.0896-2.8427-0.026-2.9022 0.15397-0.14023 0.42413-13.785 0.63204-15.497 0.23613-0.748-0.17304-1.36-0.20137-1.36-0.063 0 0.40699-48.039 0.27186-48.194-0.13557zm9.5545-0.0956c-0.572-0.071-1.508-0.071-2.08 0s-0.104 0.12907 1.04 0.12907 1.612-0.0581 1.04-0.12907zm27.206 0.0216c-0.21665-0.0876-0.64865-0.093-0.96-0.0119-0.31135 0.0811-0.13409 0.15285 0.39391 0.15937 0.528 7e-3 0.78274-0.0599 0.56609-0.14751zm8.7868-0.0236c-0.66393-0.0693-1.6719-0.0681-2.24 3e-3 -0.56808 0.0707-0.02486 0.12737 1.2071 0.12595 1.232-1e-3 1.6968-0.0593 1.0329-0.12853zm53.579-0.69414c0.99634-0.38334 2.3455-1.1213 2.9981-1.64 0.65263-0.51865 1.3357-0.85085 1.5179-0.73822 0.18223 0.11262 0.25219 0.0745 0.15547-0.0847-0.0967-0.15919 0.0112-0.46223 0.23989-0.67341 0.42529-0.39278 0.60462-0.0141 1.0048 2.1216 0.22042 1.1764 0.23675 1.1833 2.5726 1.0991l2.1797-0.0786 0.0897-9.059c0.0493-4.9825 0.0102-9.3845-0.0869-9.7823l-0.17664-0.72325-7.4331 0.0832c-4.2718 0.0478-7.6372 0.21934-7.9131 0.40324-0.34819 0.23212-0.48 0.91718-0.48 2.4946 0 2.6222-0.01718 2.613 4.8789 2.6204 3.274 5e-3 3.279 6e-3 3.3119 0.80497l0.033 0.8 0.22214-0.79832c0.12217-0.43908 0.4865-0.84923 0.80961-0.91146 0.51703-0.0996 0.56085 0.0346 0.36542 1.1183-0.5056 2.8038-0.9893 3.8161-2.5797 5.3989-1.9466 1.9374-3.274 2.395-6.9184 2.3855-3.028-8e-3 -4.7121-0.58884-6.4441-2.2228-0.87808-0.82839-0.96455-1.032-0.55882-1.3161 0.38431-0.26906 0.34725-0.2991-0.18592-0.15069-0.55604 0.15477-0.80562-0.1-1.5126-1.5437-0.46566-0.95101-0.92059-2.213-1.0109-2.8044-0.09036-0.59142-0.30356-1.7233-0.47377-2.5153-0.34441-1.6025-0.0859-5.5205 0.3466-5.2532 0.15214 0.094 0.27662-0.13404 0.27662-0.50681 0-0.43083-0.1346-0.59458-0.36944-0.44944-0.20319 0.12558-0.29506 0.0981-0.20414-0.0611 0.09091-0.15919 0.42088-1.1174 0.73325-2.1294 0.31237-1.012 0.69224-1.84 0.84414-1.84 0.15191 0 0.2784-0.18 0.28109-0.4 0.0026-0.22 0.13572-0.60674 0.29561-0.85942 0.25262-0.39924 0.36727-0.39924 0.8751 0 0.53932 0.42399 0.54926 0.41471 0.12888-0.12026-0.40637-0.51714-0.36322-0.66524 0.4-1.3729 0.47053-0.43631 0.85551-0.69035 0.85551-0.56455s0.33694-0.0878 0.74876-0.47469c0.99588-0.93558 2.4858-1.3292 5.0091-1.3233 2.4736 6e-3 4.7211 0.61385 5.3259 1.4409 0.2399 0.32808 0.43619 0.50512 0.43619 0.3934s0.41517 0.18476 0.92259 0.65884c1.0757 1.005 2.0701 2.8267 1.8525 3.3938-0.27495 0.71652 0.95285 1.1046 3.5057 1.108 2.9824 4e-3 3.6392-0.14738 3.6392-0.83866 0-0.675-0.58749-2.5655-1.152-3.7071-0.24639-0.49827-0.44798-1.1103-0.44798-1.36 0-0.24974-0.15941-0.45407-0.35424-0.45407s-0.26848-0.22348-0.16366-0.49662c0.12451-0.32446 0.0621-0.4172-0.18015-0.2675-0.24933 0.15409-0.30219 0.0505-0.16144-0.31624 0.1532-0.39923 0.0606-0.52047-0.34562-0.45249-0.36752 0.0615-0.52501-0.0881-0.46641-0.44302 0.0487-0.29473-0.0816-0.64098-0.28944-0.76944-0.23718-0.14659-0.2929-0.096-0.1496 0.13587 0.33018 0.53425-0.0238 0.45364-0.75419-0.17175-0.48818-0.418-0.54914-0.64109-0.26777-0.98012 0.29898-0.36025 0.2086-0.39986-0.50422-0.22096-0.63446 0.15925-0.84354 0.10402-0.77588-0.20493 0.0509-0.2326-0.12338-0.42964-0.38738-0.43785-0.264-8e-3 -1.416-0.37379-2.56-0.81237l-2.08-0.79745 1.12-0.17566c0.616-0.0966-1.184-0.15728-4-0.13483-5.1073 0.0407-7.6443 0.43648-9.4694 1.4772-1.4788 0.84325-4.2985 2.9598-4.7177 3.5412-0.2349 0.32583-0.6855 0.83866-1.0013 1.1396-1.1311 1.0779-2.8834 5.0537-3.5556 8.0672-0.8106 3.634-0.6823 7.6005 0.35137 10.862 0.35943 1.1341 0.58134 2.2501 0.49313 2.48-0.08822 0.22988 0.03429 0.41797 0.27224 0.41797 0.40948 0 0.85615 0.86247 0.99436 1.92 0.1317 1.0078 3.8578 4.403 6.2889 5.7305 4.2296 2.3095 9.8226 2.8551 13.756 1.3419zm8.6746 0.71778c-0.21665-0.0877-0.64865-0.093-0.96-0.0119s-0.13409 0.15285 0.39391 0.15937c0.528 7e-3 0.78274-0.0599 0.56609-0.14752zm28.154-0.0297c-3.564-0.0515-9.396-0.0515-12.96 0s-0.648 0.0936 6.48 0.0936 10.044-0.0421 6.48-0.0936zm16.006 0.0297c-0.21665-0.0877-0.64865-0.093-0.96-0.0119s-0.13409 0.15285 0.39391 0.15937c0.528 7e-3 0.78274-0.0599 0.56609-0.14752zm47.674-0.0296c-3.036-0.0526-8.004-0.0526-11.04 0s-0.552 0.0956 5.52 0.0956c6.072 0 8.556-0.043 5.52-0.0956zm30.38-9e-5c-3.0473-0.0527-7.9433-0.0525-10.88 2.1e-4 -2.9367 0.0528-0.44352 0.0958 5.5405 0.0957 5.984-1.1e-4 8.3868-0.0433 5.3395-0.0959zm15.854 0.0462c-0.10633-0.10634-0.38234-0.1177-0.61334-0.0253-0.25527 0.10215-0.17945 0.17798 0.19334 0.19333 0.33733 0.0139 0.52633-0.0617 0.42-0.16807zm23.74 0.0786c-0.0733-0.0631-0.70934-0.20301-1.4133-0.31093-0.87167-0.13362-1.1269-0.0986-0.8 0.10981 0.43722 0.27875 2.524 0.46837 2.2133 0.20112zm41.067-0.11112c-0.396-0.0763-1.044-0.0763-1.44 0s-0.072 0.13867 0.72 0.13867 1.116-0.0624 0.72-0.13867zm41.6-0.0136c-2.86-0.053-7.54-0.053-10.4 0s-0.52 0.0964 5.2 0.0964 8.06-0.0434 5.2-0.0964zm6.7261 0.0295c-0.21664-0.0876-0.64864-0.093-0.96-0.0119-0.31133 0.0811-0.13408 0.15285 0.39392 0.15937 0.528 7e-3 0.78275-0.0599 0.56608-0.14751zm49.899 7e-3 1.1847-0.19587 0.0227-17.923c0.0125-9.8577 0.0762-18.012 0.14167-18.121 0.31811-0.52781-0.87328-0.84508-3.4572-0.92065-1.767-0.0517-3.0087 0.054-3.28 0.27918-0.68057 0.56483-0.64441 35.553 0.0374 36.119 0.31606 0.26233 1.3202 0.35491 3.0146 0.27796 2.7706-0.12582 3.1186 0.0585 0.73804 0.39109-1.0288 0.14372-1.2021 0.2229-0.54656 0.2497 0.528 0.0216 1.4931-0.0489 2.1447-0.15664zm26.575-0.0366c-3.212-0.0522-8.468-0.0522-11.68 0s-0.584 0.0949 5.84 0.0949 9.052-0.0427 5.84-0.0949zm30.873 0.0462c-0.10633-0.10633-0.38233-0.1177-0.61334-0.0252-0.25527 0.10215-0.17946 0.17798 0.19334 0.19333 0.33731 0.0139 0.52634-0.0617 0.42-0.16807zm22.735-0.0393c-0.65533-0.0688-1.8073-0.0697-2.56-2e-3 -0.75264 0.0676-0.21645 0.12386 1.1916 0.12502 1.408 1e-3 2.0238-0.0541 1.3684-0.12291zm28.632 9.6e-4c-0.572-0.071-1.508-0.071-2.08 0s-0.104 0.12906 1.04 0.12906 1.612-0.0581 1.04-0.12906zm32.96-3e-3c-0.748-0.0674-1.972-0.0674-2.72 0s-0.136 0.12249 1.36 0.12249 2.108-0.0551 1.36-0.12249zm19.993 0.041c-0.10634-0.10633-0.38234-0.1177-0.61334-0.0252-0.25527 0.10215-0.17946 0.17798 0.19334 0.19333 0.33731 0.0139 0.52634-0.0617 0.42-0.16807zm2.4127-0.0166c-0.21664-0.0877-0.64864-0.093-0.96-0.0119-0.31133 0.0811-0.13408 0.15285 0.39392 0.15938 0.528 7e-3 0.78275-0.0599 0.56608-0.14752zm121.91-2e-3c-0.22-0.0888-0.58-0.0888-0.8 0s-0.04 0.1614 0.4 0.1614 0.62-0.0726 0.4-0.1614zm42.4-0.0173c-0.484-0.0733-1.276-0.0733-1.76 0s-0.088 0.1333 0.88 0.1333 1.364-0.06 0.88-0.1333zm-583.52-0.55644c0.50944-0.22067 0.56-0.88953 0.56-7.4083v-7.1656h5.6888c6.1715 0 6.2311 0.0145 8.1566 1.9812 0.6937 0.70853 0.83949 1.0873 0.67333 1.7493-0.1344 0.53552-0.0938 0.77187 0.11098 0.64533 0.37128-0.22946 0.71943 2.1689 0.73514 5.0642 0.0117 2.1561 0.41573 4.2286 0.92333 4.7362 0.37316 0.37316 7.3918 0.54525 7.3918 0.18125 0-0.1234-0.28311-0.88484-0.62914-1.6921-0.67915-1.5844-0.87291-2.8675-1.1316-7.4935-0.19514-3.4891-1.2045-6.088-2.7098-6.9772-0.50042-0.29561-0.83987-0.71983-0.75435-0.94271 0.10637-0.27718-0.08-0.3598-0.58977-0.26143-0.4099 0.0791-0.13327-0.14151 0.61473-0.49023s1.3623-0.74794 1.3651-0.88716c3e-3 -0.13922 0.43783-0.7441 0.96672-1.3442 1.2676-1.4382 1.4282-2.1252 1.4282-6.1089 0-3.1134-0.0674-3.4777-0.91825-4.964-0.50504-0.88223-1.3909-1.9622-1.9687-2.4s-0.9818-0.90752-0.89796-1.0439c0.0838-0.13636 0.0337-0.21797-0.11135-0.18137-0.14508 0.0366-1.2546-0.24895-2.4656-0.63457-2.0584-0.65548-2.8554-0.70373-12.24-0.74103-7.1452-0.0284-10.044-0.14296-10.058-0.3975-0.0112-0.19668-0.15774-0.014-0.32575 0.40582-0.33173 0.82905-0.43925 35.126-0.11279 35.976 0.1577 0.41095 0.61749 0.47478 2.5655 0.35619 1.3444-0.0818 2.3734-0.0162 2.3734 0.15145 0 0.31639 0.45559 0.27842 1.36-0.11333zm0.49543-25.47 0.0954-5.1369 5.9093 0.0546c3.2501 0.0301 5.9876 0.18145 6.0834 0.33644 0.0958 0.155 0.41814 0.28182 0.71632 0.28182s0.94787 0.42985 1.4437 0.95523c0.68796 0.7289 0.94512 1.3769 1.0853 2.7349 0.1882 1.8235-0.39457 4.443-0.91665 4.1204-0.14976-0.0924-0.27228-0.0135-0.27228 0.17545 0 0.18897-0.468 0.62893-1.04 0.97769-0.94015 0.57321-1.6238 0.63426-7.12 0.63574l-6.08 2e-3 0.0954-5.1369zm14.683 1.556c-0.10215-0.25528-0.17798-0.17945-0.19333 0.19333-0.0139 0.33733 0.0617 0.52633 0.16807 0.42 0.10633-0.10633 0.1177-0.38234 0.0252-0.61333zm0.32316-1.7739c-0.0811-0.31136-0.15285-0.13409-0.15937 0.39391-7e-3 0.528 0.0599 0.78273 0.14752 0.56609 0.0876-0.21665 0.093-0.64865 0.0119-0.96zm76.898 25.634c1.496 0.0218 2.864-0.0865 3.04-0.24082 0.20044-0.17569 0.28567-2.8958 0.2281-7.28l-0.0919-6.9995h5.5481c5.2986 0 7.2658 0.2864 7.2732 1.0589 1e-3 0.14238 0.14017 0.17379 0.30844 0.0698 0.94526-0.58421 2.2448 3.6739 2.2502 7.3732 2e-3 1.505 0.22814 3.3069 0.54165 4.32 0.29582 0.95594 0.50369 1.8704 0.46195 2.0322-0.0417 0.16179 0.13052 0.12285 0.38281-0.0865 0.31387-0.26049 1.4225-0.33378 3.5107-0.23209 2.6002 0.12663 3.0813 0.0723 3.2498-0.36697 0.10882-0.28357 0.0491-0.66431-0.13264-0.84608-0.18177-0.18177-0.33049-0.73369-0.33049-1.2265s-0.12-0.896-0.26666-0.896c-0.14667 0-0.27581-0.18-0.28698-0.4-0.0112-0.22-0.19655-1.8159-0.41197-3.5464-0.21542-1.7305-0.32026-3.7799-0.23299-4.5542 0.0873-0.77428 0.0341-1.3308-0.11808-1.2367-0.15222 0.0941-0.45138-0.48187-0.66482-1.2799-0.21343-0.79801-0.46691-1.3437-0.56328-1.2127-0.0964 0.13104-0.50612-0.0995-0.91056-0.51236-0.59813-0.61057-0.62798-0.7172-0.16-0.5715 0.31644 0.0985 0.76101 0.0624 0.98793-0.0802 0.27295-0.17158 0.11049-0.27107-0.48-0.29394-2.2607-0.0876-2.6186-0.40835-1.28-1.1473 1.056-0.58291 3.4826-3.4508 3.6753-4.3438 0.21827-1.0111 0.225-7.3157 8e-3 -7.1813-0.12341 0.0763-0.39821-0.4414-0.61065-1.1505-0.21245-0.70908-0.50748-1.2892-0.65562-1.2892s-0.26935-0.216-0.26935-0.48-0.11078-0.444-0.24618-0.4-0.59522-0.24462-1.0218-0.64138c-0.94519-0.87907-3.1569-1.976-4.7519-2.3567-0.64904-0.15492-5.3201-0.27959-10.38-0.27702-7.1939 4e-3 -9.2055-0.0836-9.2253-0.40012-0.0172-0.27559-0.0732-0.28795-0.17534-0.0387-0.0825 0.20131-0.42602 0.29387-0.76327 0.20568-1.429-0.3737-1.4361-0.28252-1.4361 18.388 0 9.724 0.108 17.68 0.24 17.68 0.132-1e-5 0.24 0.2336 0.24 0.51915 0 0.37207 0.11334 0.42884 0.4 0.20033 0.22-0.17538 1.624-0.30101 3.12-0.27919zm3.2-25.4v-5.12l5.52 5e-3c5.8021 5e-3 7.9452 0.36268 7.6654 1.2791-0.11346 0.3716-0.0568 0.3928 0.25808 0.0966 0.8813-0.82887 1.917 1.3642 1.9161 4.0573-6.4e-4 1.886-0.84839 3.4851-2.2345 4.215-0.96671 0.50904-1.9137 0.58713-7.12 0.58713h-6.005zm12.073 4.6067c-0.10634-0.10634-0.38234-0.1177-0.61334-0.0253-0.25527 0.10215-0.17945 0.17798 0.19334 0.19333 0.33733 0.0139 0.52633-0.0617 0.42-0.16807zm0.32-0.64c-0.10634-0.10634-0.38234-0.1177-0.61334-0.0252-0.25527 0.10215-0.17945 0.17798 0.19334 0.19333 0.33733 0.0139 0.52633-0.0617 0.42-0.16807zm1.8467-2.6867c0.10878-0.176 0.0453-0.32-0.14111-0.32-0.18639 0-0.33889 0.144-0.33889 0.32s0.0635 0.32 0.14112 0.32c0.0776 0 0.23011-0.144 0.33888-0.32zm-0.6779-3.3766c0.10928-0.28478 0.0556-0.41322-0.12576-0.30111-0.17398 0.10752-0.31634 0.331-0.31634 0.49662 0 0.46029 0.22937 0.35886 0.4421-0.19551zm286.28 27.443 3.04-0.0222 0.172-14.395 5.1512-0.0319c2.8332-0.0175 5.6272 0.0574 6.2089 0.16654 0.95878 0.17987 1.049 0.29279 0.96486 1.2075-0.051 0.555-0.0301 0.6851 0.0464 0.2891 0.16736-0.86551 0.47274-0.9089 1.126-0.16 1.0834 1.242 1.346 2.2845 1.5518 6.16 0.19367 3.6472 0.75117 6.7 1.2296 6.7331 1.962 0.13569 7.1636 0.0933 7.2578-0.0591 0.07-0.1133-0.0894-0.72461-0.35424-1.3585-0.26483-0.63386-0.44387-1.203-0.39785-1.2648 0.046-0.0618-0.0722-0.31448-0.26275-0.56153-0.1905-0.24705-0.38317-1.1692-0.42816-2.0492-0.0663-1.2975-0.47047-5.922-0.74605-8.5365-0.031-0.29507-0.14861-0.47959-0.26119-0.41003-0.11254 0.0696-0.36659-0.22901-0.56454-0.6635-0.19798-0.43448-0.52243-0.78996-0.72106-0.78996-0.19859 0-0.28102-0.20867-0.18313-0.4637 0.12672-0.33025 0.0214-0.40673-0.36576-0.26574-0.4593 0.16723-0.44435 0.0786 0.0963-0.57078 0.44806-0.5382 0.47664-0.64251 0.0954-0.34783-0.32599 0.25193-0.82912 0.33063-1.2532 0.19602l-0.70861-0.22489 0.77325-0.59443c0.42528-0.32693 0.95325-0.59762 1.1732-0.60153 0.22-4e-3 0.364-0.11796 0.32-0.25344s0.316-0.67401 0.8-1.1967c0.484-0.52273 0.88-1.2124 0.88-1.5326 0-0.32018 0.13164-0.5008 0.29251-0.40136 0.38819 0.2399 0.79968-4.2932 0.55305-6.0925-0.10691-0.78008-0.47801-2.0053-0.82464-2.7228-0.50675-1.0489-0.53593-1.2683-0.14896-1.1198 0.27268 0.10463 0.39655 0.0476 0.28576-0.13165-0.10752-0.17399-0.34115-0.31634-0.5192-0.31634-0.17804 0-0.99753-0.54776-1.8211-1.2172-3.1161-2.533-4.1014-2.6964-16.084-2.6673-5.3828 0.0131-10.027 0.11588-10.32 0.22841s-0.53318 0.41369-0.53318 0.66925 0.14188 0.37695 0.31532 0.26976c0.20564-0.12708 0.31466 5.8221 0.31335 17.101 0 11.071-0.11475 17.296-0.31533 17.296-0.17235 0-0.0613 0.25992 0.24666 0.5776 0.308 0.31768 0.632 0.48154 0.72 0.36413 0.088-0.1174 1.528-0.22344 3.2-0.23562zm3.2-25.376v-5.15l6 0.11352c6.4425 0.1219 7.3051 0.31273 8.4574 1.871 1.3736 1.8576 1.0005 6.1308-0.588 6.7347-0.43334 0.16475-0.69872 0.44382-0.58976 0.62015 0.20461 0.33102-0.1711 0.43176-1.2796 0.34313-0.5321-0.0425-0.55908 4e-3 -0.16 0.27825 0.33686 0.23118-1.3571 0.33088-5.68 0.33432l-6.16 5e-3zm10.64 3.978c-0.22-0.0888-0.58-0.0888-0.8 0s-0.04 0.16141 0.4 0.16141 0.62-0.0726 0.4-0.16141zm-9.4448-4.8281c-0.0659-0.836-0.11984-0.152-0.11984 1.52s0.0539 2.356 0.11984 1.52c0.0659-0.836 0.0659-2.204 0-3.04zm12.565-2.3578c0-0.176-0.144-0.231-0.32-0.12223s-0.32 0.34177-0.32 0.51777 0.144 0.231 0.32 0.12223 0.32-0.34177 0.32-0.51777zm-12.355-0.76223c0.15683-0.70109 0.12714-0.83055-0.11008-0.48-0.17866 0.264-0.32704 0.756-0.32973 1.0933-6e-3 0.81871 0.17661 0.56329 0.43981-0.61333zm-542.1 28.987c0.17723-0.17722 0.63817-1.2279 1.0243-2.3348 0.38615-1.1069 1.1184-3.0566 1.6273-4.3326l0.92519-2.32h6.8013c5.5829 0 6.8013 0.0794 6.8013 0.44342 0 0.24388 0.21511 0.85588 0.47803 1.36 0.26292 0.50411 0.47892 1.2166 0.48 1.5832 0.0011 0.36666 0.10459 0.76928 0.23002 0.89471 0.34225 0.34225 1.3714 3.1628 1.3717 3.7594 6.4e-4 1.0518 0.90216 1.3381 4.3504 1.3813 2.3973 0.03 3.4625-0.0763 3.7062-0.36997 0.24745-0.29817 0.23324-0.41213-0.05138-0.41213-0.21824 0-0.3114-0.21374-0.20922-0.48 0.1013-0.264 0.08071-0.48054-0.04576-0.4812-0.12648-6.4e-4 -0.49222-0.68466-0.81277-1.52-0.32055-0.83534-0.71655-1.7688-0.88-2.0745-0.38493-0.7197-0.377-0.97144 0.02282-0.72434 0.176 0.10877 0.32 0.0453 0.32-0.14111-6e-6 -0.18639-0.21601-0.33889-0.48001-0.33889s-0.48-0.25596-0.48-0.5688c0-0.31283-0.18833-0.85283-0.4185-1.2s-0.69238-1.4952-1.0271-2.5512c-0.33473-1.056-0.7343-2.0931-0.88794-2.3046-0.15363-0.21156-0.19676-0.71556-0.09585-1.12 0.10092-0.40445 0.09609-0.54118-0.01072-0.30385-0.32955 0.73221-1.9295-3.3389-1.7416-4.4315 0.0454-0.264-0.02317-0.37598-0.15236-0.24884-0.12921 0.12714-0.62511-0.88086-1.102-2.24-0.4769-1.3591-1.2587-3.2417-1.7373-4.1835-0.4786-0.94179-0.73719-1.6302-0.57463-1.5297 0.16509 0.10203 0.22638-0.17919 0.13885-0.63708-0.09863-0.51595-0.2437-0.67898-0.39145-0.43991-0.14662 0.23724-0.31403 0.0381-0.44592-0.53057-0.20031-0.86358-2.1191-5.8532-2.8405-7.3865-0.21185-0.45026-0.46609-0.6145-0.68494-0.44247-0.52089 0.40946-5.2077 0.45972-5.4557 0.0585-0.3934-0.63653-0.84416-0.34213-1.3168 0.86002-0.25946 0.66-0.61211 1.45-0.78367 1.7557-0.17157 0.30561-0.31194 0.83361-0.31194 1.1733s-0.11008 0.66568-0.24463 0.72434c-0.13454 0.0587-0.50295 0.93798-0.81867 1.954-0.31572 1.016-0.70964 1.7635-0.87537 1.6611-0.16573-0.10242-0.31203 0.0743-0.32511 0.39265-0.0442 1.076-0.29258 2.0312-0.83923 3.2275-0.29942 0.65526-0.63173 1.5514-0.73848 1.9914-0.10675 0.44-0.3609 0.76573-0.56478 0.72384-0.2145-0.0441-0.29021 0.13357-0.17969 0.42159 0.10505 0.27376 0.0483 0.81203-0.12611 1.1962-0.79177 1.7438-1.796 4.3548-2.2378 5.8184-0.26564 0.88-0.61059 1.7368-0.76655 1.904s-0.28357 0.5717-0.28357 0.89889c0 0.32718-0.144 0.50588-0.32 0.39711s-0.31854 0.0627-0.31676 0.38111c0.0057 1.0211-1.38 4.5569-1.7067 4.3549-0.18399-0.11372-0.21311-0.0294-0.06988 0.20232 0.21692 0.35098-0.30072 1.9942-1.1395 3.6173-0.15793 0.30561-0.28715 0.78211-0.28715 1.0589 0 0.27678-0.14235 0.41525-0.31633 0.30773-0.17733-0.1096-0.23731 0.0104-0.1365 0.27312 0.10976 0.28604-0.047521 0.52289-0.40367 0.60788-0.51739 0.12347-0.50198 0.17274 0.136 0.43486 0.93849 0.3856 6.8034 0.24696 7.2211-0.17069zm6.0307-16.427c0.3571-1.1 0.85296-2.4565 1.1019-3.0144 0.24895-0.55795 0.54194-1.461 0.65108-2.0067 0.10914-0.54572 0.32384-1.0697 0.47711-1.1644 0.15327-0.0947 0.27867-0.39724 0.27867-0.67227 0-0.27502 0.39183-1.5032 0.87073-2.7293 0.6445-1.6501 0.9251-2.0765 1.08-1.6411 0.11508 0.32352 0.49763 1.3802 0.8501 2.3482s1.0522 3.056 1.5548 4.64 1.0243 2.928 1.1592 2.9867c0.39751 0.17294 0.28012 1.2659-0.15482 1.4414-0.2539 0.10245-0.20909 0.17063 0.12268 0.18667 0.70982 0.0343 0.99028 1.2088 0.34754 1.4554-0.27448 0.10533-0.61857 7e-3 -0.76464-0.21933-0.17596-0.27221-0.34657-0.29933-0.50558-0.0804-0.32264 0.44424-5.6119 0.45586-5.9151 0.013-0.15808-0.23093-0.23671-0.2124-0.24 0.0566-0.0027 0.22-0.35546 0.4-0.78392 0.4h-0.77902l0.64927-2zm3.4414-6.32c-0.0116-0.3165-0.11127-0.262-0.29261 0.16-0.37802 0.87971-0.37802 1.385 0 0.8 0.17061-0.264 0.30228-0.696 0.29261-0.96zm27.142 10.813c0.04101-6.7389 0.08393-12.469 0.09537-12.733 0.01146-0.264 0.26589-0.0161 0.56543 0.55081 0.44521 0.84264 3.2564 5.4059 5.7718 9.3692 0.27926 0.44 0.53295 0.95485 0.56375 1.1441 0.03078 0.18926 0.43243 0.75029 0.89252 1.2467 0.46009 0.49644 0.83652 1.1741 0.83652 1.5059 0 0.33183 0.21162 0.68452 0.47026 0.78377 0.25865 0.0993 0.90665 1.0537 1.44 2.1211 0.53335 1.0673 0.9755 1.8096 0.98255 1.6495 7e-3 -0.16011 0.22943 0.1083 0.4942 0.59648 0.26476 0.48817 0.39229 1.0317 0.2834 1.2079-0.10889 0.17618-0.01904 0.28077 0.19964 0.23241 0.21869-0.0484 0.55514 0.20007 0.74767 0.55207s0.61271 1.0297 0.93374 1.5059c0.32103 0.47626 0.47704 1.0385 0.34668 1.2494-0.14996 0.24264-0.10132 0.29964 0.13242 0.15519 0.21447-0.13255 0.36944-0.0334 0.36944 0.23632 0 0.72568 0.86218 0.90555 4.48 0.93465l3.36 0.027 0.08851-17.574c0.04868-9.6658 0.01683-17.871-0.07078-18.233-0.14941-0.61812-0.33852-0.65043-3.0485-0.52086-2.6519 0.12679-2.8916 0.0889-2.9178-0.46101-0.01574-0.32953-0.22954 0.12086-0.47512 1.0009-0.35122 1.2586-0.43047 4.0597-0.37138 13.126 0.07283 11.176 0.05783 11.497-0.49364 10.56-0.31281-0.53146-0.65361-1.2183-0.75732-1.5263s-0.28473-0.56-0.40225-0.56c-0.41604 0-1.3452-1.9272-1.1188-2.3207 0.12638-0.21964 0.11833-0.29898-0.01789-0.17631-0.21509 0.1937-0.71859-0.45566-2.6642-3.4361-0.22511-0.34483-0.4939-0.87896-0.59732-1.187-0.10342-0.30799-0.31524-0.55999-0.47072-0.55999s-0.28268-0.216-0.28268-0.48-0.11531-0.48-0.25623-0.48c-0.14093 0-0.57951-0.66539-0.97462-1.4786-0.6785-1.3966-0.68817-1.512-0.17417-2.08 0.29932-0.33074 0.39553-0.60135 0.2138-0.60135s-0.511 0.2176-0.73172 0.48355c-0.35531 0.42812-0.44934 0.41896-0.82037-0.08-0.23048-0.30995-0.34386-0.87184-0.25194-1.2486 0.09191-0.3768 0.01309-0.78028-0.17515-0.89662-0.21545-0.13316-0.2733 2e-3 -0.15614 0.36509 0.12915 0.4001-0.01126 0.33446-0.45864-0.21443-0.35462-0.43508-0.58894-0.88139-0.5207-0.99179 0.06823-0.1104-0.24286-0.51975-0.69131-0.90968-0.4762-0.41405-0.7394-0.9069-0.63275-1.1848 0.10371-0.27027 0.04496-0.39081-0.13598-0.27899-0.17522 0.1083-0.41682-0.0642-0.53688-0.38338-0.12006-0.31915-0.69946-1.3363-1.2876-2.2603-0.96473-1.5157-1.1857-1.6831-2.2595-1.712-0.65459-0.0176-2.1982-0.0612-3.4302-0.0969-1.2814-0.0371-2.3406 0.0793-2.4751 0.27202-0.24647 0.35315-0.34872 35.806-0.10398 36.051 0.07751 0.0775 1.5535 0.10715 3.28 0.0659l3.1391-0.0751zm94.241 12.067c0.2712-0.36914 0.3199-4.4881 0.0643-5.44-0.16774-0.62471-0.40426-0.63787-9.8977-0.551l-9.7259 0.089-0.0979-4.089c-0.0538-2.249-0.0522-4.4107 4e-3 -4.804l0.1016-0.71497 17.717-0.17 0.0944-2.5296c0.0519-1.3913-0.0368-2.6608-0.19719-2.8212-0.16183-0.16184-4.1546-0.28478-8.9744-0.27633l-8.6828 0.0152v-8.6467l9.4253 0.0893c10.861 0.10292 10.012 0.38365 9.8912-3.2707-0.0572-1.7353-0.67126-4.4956-0.73619-3.3095-0.0151 0.2751-3.3159 0.35753-12.815 0.32l-12.795-0.0505-0.0853 17.92c-0.0469 9.856-0.0477 18.064-2e-3 18.24 0.0539 0.20681 4.7512 0.32 13.28 0.32 8.4276 0 13.282-0.11564 13.432-0.32zm64.829-0.0817c0.39726-0.37587 1.1344-4.226 0.8614-4.499-0.11316-0.11316-0.23298 0.45383-0.59607 2.8207-0.0675 0.44-0.14233-0.2355-0.1663-1.5011-0.024-1.2656-0.1684-2.3783-0.32096-2.4726-0.15257-0.0943-4.2605-0.18274-9.1288-0.19656l-8.8514-0.0251 0.0271-14.863c0.0149-8.1748-0.054-14.995-0.15317-15.155-0.0992-0.16044 6.4e-4 -0.36465 0.2217-0.45378 0.2211-0.0891 0.0865-0.17344-0.29912-0.18734-0.38561-0.0139-0.79869 0.13262-0.91795 0.32558-0.13917 0.22518-1.2061 0.31114-2.9789 0.24l-2.762-0.11085-0.0827 17.884c-0.0491 10.613 0.0376 18.029 0.21315 18.24 0.44972 0.54121 24.36 0.49745 24.934-0.0456zm30.154 0.0702c0.37759-0.23336 0.40098-5.4892 0.0255-5.7212-0.15175-0.0938-4.6158-0.18222-9.92-0.19651l-9.6441-0.026v-9.5546l17.76-0.1702 0.0963-2.2333c0.16807-3.8981 1.1089-3.541-9.042-3.4322l-8.8142 0.0945v-8.6332l9.5064-0.0264c7.1215-0.0198 9.5688-0.12461 9.7551-0.41787 0.4367-0.68735 0.30723-5.3529-0.15345-5.5296-0.22658-0.087-6.129-0.19043-13.117-0.22996-10.335-0.0585-12.735 8e-3 -12.868 0.3543-0.30892 0.80533-0.1728 35.436 0.14052 35.75 0.32618 0.32619 25.745 0.29957 26.275-0.0275zm124.69-0.3085c0.14016-0.352 0.18282-1.72 0.0948-3.04l-0.16-2.4-19.52-0.32-0.0574-4.358c-0.0551-4.1818-0.0291-4.3727 0.64-4.7218 0.45639-0.23805 3.5731-0.39082 9.0174-0.44199l8.32-0.0782 0.0944-2.5296c0.0519-1.3913-0.0327-2.6567-0.188-2.812-0.15527-0.15528-3.9875-0.28184-8.5161-0.28124-5.8755 6.4e-4 -8.4108-0.1095-8.852-0.385-0.55632-0.34745-0.61821-0.77871-0.61821-4.3091 0-3.8564 0.0122-3.9229 0.72-3.9181 0.51671 4e-3 0.59943 0.0813 0.29296 0.27561-0.32678 0.20713-0.27603 0.31019 0.21603 0.43888 0.46362 0.12122 0.59444 0.0413 0.46871-0.28639-0.14832-0.3865 1.146-0.44904 8.646-0.41772 6.4116 0.0268 8.8562 0.13895 8.9514 0.41078 0.0721 0.20566 0.15837-0.98184 0.19175-2.6389 0.0334-1.6571 0.12886-3.1231 0.21216-3.2579 0.0833-0.13478 3e-3 -0.33701-0.17923-0.44941-0.18186-0.1124-5.9802-0.23035-12.885-0.26211-6.905-0.0318-12.771-0.14215-13.035-0.2453-0.264-0.10316-0.36598-0.12515-0.22665-0.0489 0.13936 0.0763 0.10556 0.31675-0.075 0.53439-0.32032 0.38595-0.53354 35.448-0.21866 35.956 0.0772 0.12438 6.0511 0.22614 13.276 0.22614 12.837 0 13.141-0.0145 13.39-0.64zm16.735 0.40456 8.16-0.0846 1.8102-0.91727c0.99565-0.5045 1.9712-0.8178 2.1679-0.69622 0.19673 0.12159 0.31811 0.0884 0.26976-0.0738-0.10823-0.36284 1.9028-2.2953 2.1408-2.0573 0.0942 0.0942 0.17123 0.01 0.17123-0.18756 0-0.19734 0.32906-0.68934 0.73126-1.0933 1.026-1.0306 2.6594-4.5628 3.0773-6.6545 0.85635-4.2863 0.94419-5.4287 0.65363-8.4998-0.3832-4.0503-0.61667-5.2602-1.0151-5.2602-0.17693 0-0.25369-0.35564-0.17059-0.79032 0.0831-0.43467 0.0278-0.71417-0.12272-0.62111-0.15056 0.0931-0.27376 0.0103-0.27376-0.18386 0-0.89105-2.4227-4.423-3.7041-5.3999-0.77562-0.59135-1.3172-1.2256-1.2036-1.4094 0.12211-0.19756 0.0516-0.23846-0.17242-0.10002-0.20845 0.12883-0.98669-0.11743-1.7294-0.54725-2.2832-1.3213-4.0037-1.5236-13.587-1.598-7.2793-0.0565-9.0683 0.0128-9.2 0.35606-0.21322 0.55579-0.21383 35.07 0 35.628 0.11446 0.29947 0.70902 0.40374 2 0.35073 1.0104-0.0415 5.5092-0.11349 9.9972-0.16zm-4.8-18.004v-12.384l4.08 0.15517c2.244 0.0853 4.7051 0.24014 5.4691 0.344 3.6105 0.49082 6.613 3.7734 7.2124 7.8851 0.3618 2.4815 0.21495 7.765-0.26236 9.44-0.25079 0.88-0.48 1.456-0.50944 1.28-0.0294-0.176-0.15111 0.0293-0.27044 0.45628-0.26912 0.96306-0.89468 1.2152-1.0953 0.44143-0.13002-0.50153-0.15466-0.50635-0.18688-0.0366-0.0205 0.29762 0.1177 0.63681 0.30694 0.75376 0.47252 0.29204-0.9262 1.7451-1.6798 1.7451-0.32131 0-0.58422-0.12721-0.58422-0.28268s-0.324-0.36362-0.72-0.46255c-0.6424-0.16048-0.62058-0.0992 0.20256 0.56864l0.92256 0.74851-0.76256 0.42202c-0.41939 0.23211-0.86077 0.39469-0.98083 0.36128-0.12003-0.0334-0.69603 0.12621-1.28 0.3547-0.63571 0.24875-2.8272 0.45138-5.4617 0.50501l-4.4 0.0896zm4.88 11.788c-0.22-0.0888-0.58-0.0888-0.8 0s-0.04 0.16141 0.4 0.16141 0.62-0.0726 0.4-0.16141zm10.16-20.089c0-0.0776-0.144-0.23012-0.32-0.33889s-0.32-0.0453-0.32 0.14111c0 0.18639 0.144 0.33889 0.32 0.33889s0.32-0.0635 0.32-0.14111zm-1.6867-0.69222c-0.10633-0.10634-0.38233-0.1177-0.61334-0.0252-0.25526 0.10215-0.17946 0.17798 0.19334 0.19333 0.33732 0.0139 0.52634-0.0617 0.42-0.16807zm56.441 26.847c0.17245-0.17245 0.27133-1.5242 0.21978-3.0038l-0.0938-2.6902-20.607-0.32 1.1313-1.3616c0.62224-0.7489 1.285-1.2666 1.4729-1.1506 0.20464 0.12648 0.24772 0.0593 0.10746-0.16766-0.1295-0.20956 0.0527-0.69621 0.40797-1.0894 2.0225-2.2388 3.5673-4.1321 4.081-5.0018 0.32128-0.54391 0.67799-0.98893 0.79264-0.98893 0.11466 0 0.59306-0.58114 1.0631-1.2914 0.49949-0.75479 1.0031-1.1996 1.212-1.0706 0.21865 0.13513 0.26761 0.0757 0.1262-0.15314-0.23763-0.3845 1.6755-2.6777 2.0439-2.45 0.11011 0.0681 0.39619-0.19094 0.63568-0.57556 0.41155-0.66093 0.4024-0.67296-0.16704-0.2193-0.59283 0.47228 1.5797-2.2599 2.9722-3.7379 0.3919-0.41594 0.86714-1.0451 1.0561-1.3982 0.18896-0.35305 0.50256-0.54361 0.69693-0.42349 0.20909 0.12923 0.26311 0.0723 0.13226-0.13937-0.1216-0.19677 0.0625-0.64139 0.40918-0.98804 0.34663-0.34665 0.87411-1.0024 1.1721-1.4573 0.45402-0.69293 0.6216-0.76124 1.0338-0.4214 0.42586 0.35114 0.44807 0.31967 0.16525-0.2344-0.17968-0.352-0.34102-1.72-0.35856-3.04-0.0176-1.32-0.0381-2.472-0.0457-2.56-0.0208-0.24056-27.121-0.095-27.514 0.14781-0.39193 0.24224-0.45901 4.9289-0.0791 5.5271 0.18714 0.2946 2.5499 0.41652 9.3022 0.48l9.0514 0.0851-0.69907 0.8c-0.38448 0.44-1.7158 2.0535-2.9585 3.5855-1.2427 1.532-2.4523 2.8595-2.6881 2.95-0.23575 0.0905-0.42861 0.33154-0.42861 0.53573 0 0.2042-0.468 0.90192-1.04 1.5505-2.5142 2.8508-3.517 4.0757-4.0103 4.8983-0.29021 0.484-0.72112 0.88-0.95757 0.88s-0.34029 0.14502-0.23072 0.32226c0.10953 0.17724-0.0259 0.40865-0.30112 0.51424-0.27517 0.10558-0.50029 0.36746-0.50029 0.58195 0 0.56503-1.439 1.8314-1.755 1.5445-0.14717-0.13361-0.17859-0.0866-0.0699 0.10451 0.21226 0.37301-0.26803 1.0532-2.8951 4.0996l-1.68 1.9482v2.4824c0 1.7665-0.11536 2.4856-0.4 2.4937-0.22 6e-3 -0.0853 0.18623 0.29933 0.4 0.88534 0.49203 29.403 0.4946 29.895 3e-3zm11.215-0.0147c0.15225-0.15224 0.23958-8.3324 0.19411-18.178l-0.0827-17.901-2.762 0.11084c-1.7728 0.0711-2.8397-0.0148-2.9789-0.24-0.11926-0.19296-0.53235-0.33947-0.91795-0.32558-0.38563 0.0139-0.52023 0.0982-0.29914 0.18734 0.22112 0.0891 0.32189 0.29167 0.224 0.45008-0.0979 0.15842-0.2032 8.0301-0.23398 17.493l-0.056 17.205-0.17226-16.8-0.17225-16.8-0.0757 17.04c-0.0431 9.704 0.046 17.04 0.20695 17.04 0.15545 0 0.34841 0.252 0.4288 0.56 0.12806 0.49084 0.53353 0.55236 3.2832 0.4981 1.7254-0.034 3.2617-0.18647 3.4139-0.33872zm13.231 0.11951c0.2048-0.1799 0.29945-4.7036 0.26291-12.565-0.0348-7.4916 0.0588-12.212 0.24-12.1 0.16339 0.10099 0.29709 0.37349 0.29709 0.60555s0.21926 0.60389 0.48723 0.82629c0.29581 0.24551 0.41328 0.66946 0.29904 1.0792-0.1272 0.4561-0.0945 0.54026 0.10102 0.25968 0.23328-0.33488 0.36538-0.32337 0.68317 0.0595 0.31197 0.3759 0.31184 0.6288 0 1.2152-0.34041 0.63874-0.33043 0.68756 0.0725 0.35542 0.3879-0.31972 0.68777-0.0471 1.7677 1.6071 0.71532 1.0957 1.4024 2.313 1.5268 2.705s0.35085 0.71288 0.50314 0.71288c0.2968 0 0.81373 1.2664 0.69545 1.7038-0.0392 0.14508 0.069 0.17705 0.24058 0.071 0.41507-0.25655 1.0753 1.011 0.78746 1.5118-0.12436 0.21636-0.10989 0.28828 0.0321 0.15981 0.24618-0.2227 3.0444 3.7121 3.0444 4.281 0 0.1499-0.15251 0.27255-0.33888 0.27255-0.1864 0-0.24039 0.15938-0.12 0.35416 0.15782 0.25537 0.28339 0.2498 0.45011-0.02 0.24608-0.39817 2.8888 3.6804 2.8888 4.4584 0 0.23875 0.10201 0.33209 0.22669 0.20741 0.12467-0.12468 0.53155 0.37093 0.90419 1.1014l0.6775 1.328 3.4958 0.0453c2.6403 0.0342 3.6133-0.0665 3.9758-0.41164 0.41273-0.39292 0.49235-2.8482 0.56813-17.52 0.0648-12.544-8e-3 -17.063-0.27424-17.063-0.1993 0-0.27949-0.216-0.17818-0.48s0.0447-0.48-0.12576-0.48-0.30995-0.20326-0.30995-0.45169c0-0.44795-0.35565-0.47123-1.28-0.0838-0.264 0.11066-1.488 0.24041-2.72 0.28833l-2.24 0.0871-0.0708 11.84c-0.0389 6.512-0.0749 12.1-0.08 12.419-5e-3 0.33201-0.15673 0.48771-0.35513 0.36509-0.19421-0.12002-0.26013-0.58445-0.15031-1.0589 0.15447-0.6671 0.12109-0.744-0.15843-0.36509-0.27091 0.36725-0.39264 0.3847-0.51827 0.0743-0.0903-0.22314-0.33136-0.58314-0.53565-0.8s-0.71974-1.0423-1.1455-1.8343-1.5417-2.6142-2.48-4.0493-1.706-2.8476-1.706-3.1389-0.13363-0.44697-0.29696-0.34603-0.37802-0.0718-0.47709-0.38398c-0.0991-0.31214-0.68928-1.3406-1.3116-2.2856-0.73763-1.1201-1.0738-1.9544-0.96585-2.3971 0.0911-0.37348 0.0829-0.49905-0.0182-0.27905-0.26723 0.58189-0.87395 0.49146-0.64826-0.0966 0.10608-0.27651 0.0545-0.41254-0.11638-0.30692-0.16883 0.10434-0.39927-0.17802-0.51207-0.62746-0.1128-0.44945-0.38403-0.92334-0.60272-1.0531-0.21868-0.12975-0.87328-1.0969-1.4546-2.1491-0.58135-1.0523-1.2552-2.1114-1.4975-2.3537-0.24227-0.24228-0.36496-0.74933-0.2726-1.1268 0.0924-0.37746 0.085-0.50539-0.0163-0.28429-0.10141 0.2211-0.33392 0.30958-0.51668 0.19664-0.56848-0.35135-6.4678-0.38961-6.893-0.0447-0.52835 0.42854-0.58855 35.45-0.0619 35.976 0.40464 0.40461 5.7595 0.39492 6.2219-0.0113zm23.349-17.799c0-9.24 0.0409-13.02 0.0909-8.4s0.05 12.18 0 16.8c-0.05 4.62-0.0909 0.84-0.0909-8.4zm144.42 17.788c1.1046-0.0911 2.6683-0.45749 3.4748-0.81424 0.8065-0.35676 1.617-0.55558 1.801-0.44182 0.20509 0.12675 0.23805 0.0505 0.0851-0.19689-0.1783-0.28851-0.0783-0.35037 0.35056-0.21675 0.33002 0.10284 0.81606 0.0327 1.0801-0.1559 0.38909-0.27793 0.35876-0.30542-0.16-0.1451-0.352 0.10879 0.19888-0.54712 1.2242-1.4576 1.0253-0.91044 2.3116-2.4481 2.8584-3.4171 0.8464-1.4997 1.0331-1.6711 1.255-1.1522 0.17229 0.4028 0.19939 0.26271 0.0799-0.41314-0.10845-0.61346 0.10343-2.0218 0.52957-3.52 0.83581-2.9386 0.97674-8.1556 0.29651-10.977-0.64848-2.6902-1.9731-6.4-2.2852-6.4-0.15318 0-0.28307-0.18-0.28867-0.4-5e-3 -0.22-0.50957-0.89707-1.12-1.5046-0.6104-0.60752-1.1098-1.228-1.1098-1.3789s-0.16848-0.17017-0.37436-0.0429c-0.25402 0.15698-0.30663 0.0548-0.16368-0.31773 0.12272-0.31979 0.0814-0.46918-0.099-0.3577-0.17034 0.10528-0.62016 0.0253-0.99955-0.17778-0.55796-0.29859-0.60509-0.42781-0.24663-0.67576 0.31603-0.21858 0.23661-0.24844-0.27677-0.10404-0.396 0.11139-0.72 0.0678-0.72-0.0969 0-0.33812-2.9361-1.1873-5.14-1.4867-2.1076-0.28626-17.353-0.35499-17.798-0.0802-0.46976 0.29033-0.60912 34.796-0.14406 35.665 0.27254 0.50965 0.97033 0.55231 8.0901 0.49461 4.2855-0.0347 8.6956-0.13766 9.8002-0.22874zm-10.808-17.995v-12.366l4.72 0.18797c5.2766 0.21014 6.563 0.48454 7.84 1.6724 0.484 0.45019 0.88 0.71838 0.88 0.59598 0-0.46992 1.312 0.99499 2.1087 2.3545 1.0105 1.7242 1.0764 2.0795 1.3067 7.0428 0.13113 2.8262 0.0741 4.0505-0.20429 4.386-0.21242 0.25594-0.3072 0.59317-0.21066 0.74939 0.5865 0.94895-2.2374 5.8156-3.0744 5.2983-0.20742-0.12821-0.25206-0.0629-0.11193 0.16383 0.32518 0.52613-2.0472 1.5231-4.616 1.9399-1.1429 0.18543-3.5541 0.33823-5.3581 0.33956l-3.28 2e-3zm11.52 10.305c0-0.0776-0.144-0.23012-0.32-0.33889s-0.32-0.0453-0.32 0.14111c0 0.18639 0.144 0.33889 0.32 0.33889s0.32-0.0635 0.32-0.14111zm3.2-3.3789c0-0.176-0.15251-0.32-0.33888-0.32-0.1864 0-0.24988 0.144-0.14112 0.32 0.10877 0.176 0.26128 0.32 0.33888 0.32s0.14112-0.144 0.14112-0.32zm56.88 11.099c0.29629-0.19054 0.4-1.7902 0.4-6.1694v-5.9121l4.327-4.327 0.76982 0.92955c0.42343 0.51125 0.76983 1.1298 0.76983 1.3745s0.0671 0.37787 0.14915 0.29584c0.3305-0.33049 1.3372 1.3952 1.1295 1.9363-0.16652 0.43395-0.0941 0.51703 0.31424 0.36034 0.60704-0.23294 1.3486 0.84164 0.9858 1.4286-0.13264 0.21462-0.0819 0.27487 0.12419 0.14749 0.20182-0.12474 0.8575 0.5516 1.5584 1.6076 0.7911 1.1919 1.0746 1.868 0.81904 1.9532-0.21504 0.0717-0.30007 0.27739-0.18896 0.45714 0.13241 0.21425 0.28144 0.19826 0.43267-0.0464 0.15258-0.24688 0.42976-0.0688 0.81869 0.52584 0.32339 0.4945 0.788 1.0998 1.0324 1.3451 0.27462 0.27558 0.37078 0.76468 0.25161 1.28-0.14013 0.60586-0.10745 0.70523 0.11946 0.36327 0.17177-0.25891 0.36211-0.40291 0.42301-0.32 0.0609 0.0829 0.50278 0.76273 0.98195 1.5107 0.66544 1.0388 1.078 1.3651 1.7467 1.3816 0.81078 0.02 6.9741 0.0104 7.5154-0.0118 0.51696-0.0211 0.1904-0.80442-0.88-2.1107-0.616-0.75174-1.12-1.4882-1.12-1.6364s-0.50125-0.84407-1.1138-1.5462c-1.1996-1.3748-1.2993-1.6117-0.80615-1.9165 0.176-0.10877 0.32-0.0213 0.32 0.19444 0 0.21572 0.0754 0.31683 0.16752 0.22468 0.0922-0.0921 0.0753-0.4078-0.0373-0.70149-0.16442-0.42845-0.29722-0.45737-0.67194-0.14638-0.37011 0.30718-0.52733 0.29228-0.75773-0.0718-0.1599-0.25268-0.29292-0.63942-0.29561-0.85942-3e-3 -0.22-0.1849-0.364-0.4049-0.32s-0.38025-0.17045-0.35613-0.47656c0.025-0.31651-0.10201-0.46639-0.29436-0.3475-0.21287 0.13155-0.26016 5e-3 -0.12756-0.34006 0.12-0.31271 0.0804-0.46857-0.092-0.36204-0.16646 0.1029-0.51235-0.21362-0.76864-0.70338-0.25625-0.48975-0.91036-1.3844-1.4536-1.9881-0.54323-0.60369-0.98771-1.2146-0.98771-1.3576s-0.30278-0.60817-0.67286-1.0338-0.64576-0.87862-0.61267-1.0067c0.0331-0.12804-0.11184-0.33912-0.32212-0.46908-0.21027-0.12995-1.0703-1.2216-1.9111-2.426l-1.5288-2.1897 6.9731-6.9698c3.8352-3.8334 7.0589-6.9698 7.1638-6.9698 0.10487 0 0.19069 1.1565 0.19069 2.57 0 1.9868 0.10871 2.6118 0.47898 2.7538 0.26342 0.10109 2.7474 0.20457 5.52 0.22995l5.041 0.0462 7e-3 14.4 7e-3 14.4-0.17609-14.24-0.17607-14.24 0.01 14.423c8e-3 12.391 0.0771 14.489 0.48947 14.889 0.36474 0.3543 1.2484 0.45205 3.68 0.40709 4.1211-0.0762 4-0.0623 4-0.45843 0-0.18638-0.144-0.24988-0.32-0.14111-0.21155 0.13075-0.32-4.7946-0.32-14.535v-14.733l0.78279-0.19647c0.43053-0.10805 2.877-0.1468 5.4367-0.0861 3.9078 0.0927 4.6854 0.0334 4.8497-0.36963 0.28793-0.70618 0.35376-2.5942 0.14985-4.2975l-0.17904-1.4956-14.516-6.4e-4c-7.9839-3.2e-4 -14.596 0.0791-14.693 0.17658-0.38317 0.38318-0.67923 0.14733-0.48054-0.38283 0.16867-0.45007 0.11958-0.49007-0.25005-0.20378-0.28455 0.22039-1.7411 0.3312-3.8199 0.29061-3.6436-0.0711-4.2108 0.0874-5.4762 1.5311-0.5432 0.61972-0.98099 0.86448-1.2494 0.69856-0.27708-0.17125-0.3352-0.12906-0.17628 0.12804 0.13033 0.2109 0.0615 0.59493-0.15303 0.85339-0.31577 0.3805-0.48205 0.39354-0.87369 0.0685-0.41181-0.34176-0.452-0.30149-0.27034 0.27088 0.24448 0.77029-0.51021 1.5955-1.1165 1.2208-0.25005-0.15453-0.29942-0.10104-0.14198 0.15374 0.14838 0.24009-0.19968 0.83192-0.90282 1.535-0.97779 0.97777-1.2178 1.0833-1.6495 0.72504-0.4256-0.35321-0.61168-0.31274-1.1814 0.25696-0.56486 0.56484-0.60822 0.75814-0.26339 1.1737 0.33171 0.39965 0.33389 0.59259 0.0112 0.98139-0.32736 0.39442-0.49367 0.40922-0.89911 0.08-0.42288-0.34337-0.46432-0.31564-0.27651 0.18493 0.28775 0.76691-0.0794 1.39-0.47446 0.80529-0.23914-0.35394-0.28387-0.34547-0.24208 0.0458 0.10937 1.0242-0.0349 1.3445-0.52119 1.1579-0.27315-0.10482-0.42339-0.0721-0.33388 0.0728 0.18524 0.29972-2.5918 3.1337-2.8337 2.8918-0.0867-0.0867-0.17129-3.3511-0.18809-7.2544-0.0211-4.888-0.14269-7.1661-0.39104-7.3196-0.53956-0.33347-6.1074-0.32993-6.4767 4e-3 -0.31747 0.28715-0.33961 35.498-0.0227 36.011 0.19805 0.32042 5.9936 0.26348 6.5027-0.0639zm6.3185-27.742c-0.31655-0.51214 0.7703-1.4368 1.1925-1.0145 0.25315 0.25315 0.23664 0.4863-0.0597 0.84343-0.47418 0.57136-0.85031 0.62816-1.1328 0.17111zm77.225 27.365c0.0569-0.26561 0.23692-0.48292 0.4-0.48292 0.1631 0 0.29433-0.252 0.29164-0.56-4e-3 -0.47858-0.05-0.49021-0.3151-0.08-0.21859 0.33825-0.31165-0.11062-0.3151-1.52-3e-3 -1.1233 0.13539-2 0.3151-2 0.176 0 0.0682-0.252-0.23965-0.56-0.51209-0.51244-1.3682-0.55243-10.08-0.47082l-9.5204 0.0892v-9.6082l17.76-0.1702 0.16138-2.56c0.0887-1.408 0.0345-2.704-0.12058-2.88-0.17894-0.2031-3.4819-0.28549-9.0414-0.22553l-8.7594 0.0945v-8.6876l9.444 0.0893c10.642 0.10065 9.6899 0.34357 9.9242-2.5318 0.15152-1.8594-0.43936-4.8556-0.83226-4.2205-0.22394 0.36199-2.5187 0.44912-12.734 0.48352-6.8532 0.0231-12.612 0.13552-12.797 0.24987-0.43578 0.26933-0.51347 35.304-0.0795 35.828 0.21482 0.25902 3.9798 0.33887 13.366 0.2835 11.35-0.067 13.081-0.14057 13.171-0.56zm-140.83 0.28375c-0.10634-0.10634-0.38234-0.1177-0.61335-0.0252-0.25526 0.10215-0.17945 0.17798 0.19335 0.19333 0.33731 0.0139 0.52633-0.0617 0.42-0.16807zm-458.47-0.61399c0.33816-0.40748 0.31837-0.4543-0.12082-0.28577-0.2889 0.11086-0.52526 0.33016-0.52526 0.48733 0 0.4115 0.18523 0.35371 0.64608-0.20156zm339.18-5.5927-0.17485-5.6-0.0652 5.1738c-0.0358 2.8456 0.0246 5.4078 0.13437 5.6938 0.10976 0.28598 0.21776 0.47776 0.24 0.42617 0.0224-0.0516-0.0382-2.6138-0.13437-5.6938zm33.282-1.12-0.17274-6.72-0.0673 6.2938c-0.037 3.4616 0.0227 6.5278 0.13229 6.8138 0.10976 0.28598 0.21776 0.47776 0.24 0.42617 0.0224-0.0516-0.0372-3.1178-0.13229-6.8138zm-539.62 5.52c-0.08877-0.22-0.1614-0.04-0.1614 0.4s0.07263 0.62 0.1614 0.4c0.08877-0.22 0.08877-0.58 0-0.8zm563.21 0.34c-0.10215-0.25527-0.17799-0.17945-0.19335 0.19333-0.0138 0.33734 0.0618 0.52634 0.1681 0.42 0.10634-0.10633 0.1177-0.38233 0.0253-0.61333zm-535.98-24.66c-0.04997-4.62-0.09086-0.84-0.09086 8.4s0.04089 13.02 0.09086 8.4c0.04997-4.62 0.04997-12.18 0-16.8zm127.34 23.846c-0.0811-0.31135-0.15285-0.13409-0.15937 0.39391-7e-3 0.528 0.0599 0.78274 0.14752 0.56609 0.0876-0.21665 0.093-0.64865 0.0119-0.96zm438.39 0.71391c0-0.264-0.12-0.48-0.26669-0.48-0.31958 0-0.35162 0.44838-0.0533 0.74667 0.29661 0.29661 0.32 0.27712 0.32-0.26667zm132.83-20.72c-0.0509-3.916-0.0926-0.712-0.0926 7.12s0.0417 11.036 0.0926 7.12c0.0509-3.916 0.0509-10.324 0-14.24zm-658 20.56c0.10877-0.176 0.04527-0.32-0.14111-0.32-0.18639 0-0.33889 0.144-0.33889 0.32s0.0635 0.32 0.14111 0.32c0.07761 0 0.23011-0.144 0.33889-0.32zm311.05-0.0213c0.32835-0.53127 0.0336-0.60494-0.42576-0.10644-0.22694 0.24625-0.27145 0.44773-0.0989 0.44773s0.40864-0.15358 0.52464-0.34129zm-78.253-0.2987c0-0.176-0.144-0.32-0.32-0.32s-0.32 0.144-0.32 0.32 0.144 0.32 0.32 0.32 0.32-0.144 0.32-0.32zm466.46-1.34c-0.10214-0.25527-0.17798-0.17945-0.19334 0.19333-0.0138 0.33734 0.0618 0.52634 0.16809 0.42 0.10634-0.10633 0.1177-0.38233 0.0253-0.61333zm-751.07-0.63051c-0.28195-0.40254-0.51264-0.6259-0.51264-0.49635 0 0.35678 0.75795 1.4956 0.90053 1.353 0.06861-0.0686-0.10593-0.4541-0.38789-0.85665zm147.87-0.1834c-0.0811-0.31135-0.15285-0.13409-0.15937 0.39391-7e-3 0.528 0.0599 0.78274 0.14752 0.56609 0.0876-0.21665 0.093-0.64865 0.0119-0.96zm530.45 0.0739c-0.10131-0.264-0.24076-0.48-0.30995-0.48-0.0691 0-0.12576 0.216-0.12576 0.48s0.13949 0.48 0.30995 0.48c0.1705 0 0.22708-0.216 0.12576-0.48zm-98.036-0.8c0-0.176-0.144-0.32-0.32-0.32s-0.32 0.144-0.32 0.32 0.144 0.32 0.32 0.32 0.32-0.144 0.32-0.32zm-518.72-0.44575c0-0.0692-0.22348-0.21152-0.49662-0.31634-0.28478-0.10928-0.41322-0.0556-0.30111 0.12576 0.18792 0.30407 0.79774 0.44975 0.79774 0.19058zm578.79-0.38757c-0.10634-0.10634-0.38234-0.1177-0.61335-0.0252-0.25526 0.10215-0.17945 0.17798 0.19335 0.19333 0.33731 0.0139 0.52633-0.0617 0.42-0.16807zm-501.13-1.1467c-0.10215-0.25527-0.17798-0.17945-0.19333 0.19332-0.0139 0.33734 0.0617 0.52634 0.16807 0.42 0.10633-0.10633 0.1177-0.38233 0.0252-0.61332zm20.501-20.638c-0.0508-4.016-0.0924-0.82185-0.0925 7.0982-7e-5 7.92 0.0415 11.206 0.0924 7.3018s0.0509-10.384 1.3e-4 -14.4zm235.44 21.018c-0.10877-0.176-0.33328-0.32-0.49888-0.32-0.16563 0-0.30112 0.144-0.30112 0.32s0.22451 0.32 0.49888 0.32c0.2744 0 0.40989-0.144 0.30112-0.32zm155.36 0.17889c0-0.0776-0.144-0.23012-0.32-0.33889s-0.32-0.0453-0.32 0.14111c0 0.18639 0.144 0.33889 0.32 0.33889s0.32-0.0635 0.32-0.14111zm32.212-1.5389c-0.0888-0.22-0.16141-0.04-0.16141 0.4s0.0726 0.61999 0.16141 0.4c0.0888-0.22 0.0888-0.58 0-0.8zm-215.35 0.02c-0.10214-0.25527-0.17798-0.17945-0.19334 0.19333-0.0138 0.33734 0.0618 0.52634 0.16809 0.42 0.10634-0.10633 0.1177-0.38233 0.0253-0.61333zm-381.12-0.32c-0.10215-0.25527-0.17798-0.17945-0.19333 0.19333-0.0139 0.33734 0.06174 0.52634 0.16807 0.42 0.10633-0.10633 0.1177-0.38233 0.02526-0.61333zm398.34-0.26c0.10877-0.176 0.0453-0.32-0.14112-0.32-0.18637 0-0.33888 0.144-0.33888 0.32s0.0635 0.32 0.14112 0.32c0.0776 0 0.23011-0.144 0.33888-0.32zm269.59-0.8c0-0.176-0.13958-0.104-0.31021 0.16-0.17062 0.264-0.31021 0.624-0.31021 0.8s0.13959 0.104 0.31021-0.16c0.17063-0.264 0.31021-0.624 0.31021-0.8zm-267.79-0.24533c-0.31603-0.31369-0.3528-0.27693-0.17913 0.17913 0.12016 0.31559 0.2991 0.49319 0.39763 0.39467 0.0985-0.0985 1.9e-4 -0.35674-0.2185-0.5738zm158.25-0.31467c-0.0888-0.22-0.16141-0.04-0.16141 0.4s0.0726 0.62 0.16141 0.4c0.0888-0.22 0.0888-0.58 0-0.8zm38.178-0.08c0-0.176-0.13958-0.104-0.31021 0.16-0.17062 0.264-0.3102 0.624-0.3102 0.8s0.13958 0.104 0.3102-0.16c0.17063-0.264 0.31021-0.624 0.31021-0.8zm-576.06-0.52375c-0.07989-0.23966-0.22494-0.0946-0.3381 0.3381-0.13919 0.53227-0.09754 0.65721 0.13992 0.41975 0.18595-0.18596 0.27513-0.52699 0.19818-0.75785zm-29.075-0.69514c0.01237-0.14238-0.12151-0.16988-0.29751-0.0611-0.176 0.10877-0.30988 0.51327-0.29751 0.89889 0.02168 0.67595 0.03236 0.67815 0.29751 0.0611 0.15126-0.352 0.28514-0.7565 0.29751-0.89889zm69.041 0.35889c-0.10215-0.25527-0.17798-0.17945-0.19333 0.19333-0.01389 0.33734 0.06173 0.52634 0.16807 0.42 0.10633-0.10633 0.1177-0.38233 0.02525-0.61333zm186.34-0.24111c0-0.16562-0.144-0.39012-0.32-0.49889s-0.32 0.0267-0.32 0.30111c0 0.27439 0.144 0.49889 0.32 0.49889s0.32-0.1355 0.32-0.30111zm436.64-0.65523c0.11213-0.18139-0.0163-0.23504-0.30112-0.12576-0.55437 0.21273-0.65578 0.4421-0.19549 0.4421 0.1656 0 0.38909-0.14235 0.49661-0.31634zm-614.61-1.9237c0.0058-0.29407-0.09712-0.2321-0.26561 0.16-0.15126 0.352-0.27078 0.928-0.26561 1.28 0.0076 0.51449 0.05965 0.48311 0.26561-0.16 0.14091-0.44 0.26044-1.016 0.26561-1.28zm629.23 0.89067c-0.2296-0.22962-0.37866-0.24852-0.37866-0.048 0 0.42713 0.37843 0.80556 0.592 0.592 0.091-0.0909-5e-3 -0.33574-0.21334-0.544zm-370.09-0.97067c-0.0888-0.22-0.16141-0.04-0.16141 0.4s0.0726 0.62 0.16141 0.4c0.0888-0.22 0.0888-0.58 0-0.8zm182.59 0.80307c-1.1-0.0625-2.9-0.0625-4 0s-0.2 0.11361 2 0.11361 3.1-0.0511 2-0.11361zm-217.36-0.72307c0-0.176-0.1525-0.32-0.33888-0.32-0.18639 0-0.24989 0.144-0.14112 0.32 0.10878 0.176 0.26128 0.32 0.33889 0.32 0.0776 0 0.14111-0.144 0.14111-0.32zm-185.28-0.64c0-0.176-0.252-0.3178-0.56-0.3151-0.47858 4e-3 -0.49021 0.05-0.08 0.3151 0.6039 0.39028 0.64 0.39028 0.64 0zm16.64 0c0-0.176-0.1525-0.32-0.33889-0.32s-0.24989 0.144-0.14111 0.32c0.10877 0.176 0.26127 0.32 0.33888 0.32 0.0776 0 0.14112-0.144 0.14112-0.32zm220.64 0c0.10877-0.176 0.0453-0.32-0.14112-0.32-0.18637 0-0.33888 0.144-0.33888 0.32s0.0635 0.32 0.14112 0.32c0.0776 0 0.23011-0.144 0.33888-0.32zm175.84 0c0-0.176-0.0635-0.32-0.14112-0.32-0.0776 0-0.23012 0.144-0.33888 0.32-0.10877 0.176-0.0453 0.32 0.14112 0.32 0.18636 0 0.33888-0.144 0.33888-0.32zm-395.43-0.96c0.0921-0.352 0.0368-0.64-0.12268-0.64-0.15953 0-0.29004 0.288-0.29004 0.64s0.0552 0.64 0.12267 0.64c0.0675 0 0.198-0.288 0.29005-0.64zm94.947 0.51731c0-0.0675-0.36-0.19152-0.8-0.27563-0.44-0.0841-0.8-0.0289-0.8 0.12269 0 0.1516 0.36 0.27563 0.8 0.27563s0.8-0.0552 0.8-0.12269zm341.02-0.57731c-0.10215-0.25527-0.17799-0.17945-0.19335 0.19333-0.0138 0.33734 0.0618 0.52634 0.1681 0.42 0.10634-0.10633 0.1177-0.38233 0.0253-0.61333zm-257.21-2.66c0.01-0.176-0.12198-0.104-0.29261 0.16-0.17062 0.264-0.30227 0.696-0.29261 0.96 0.0186 0.50683 0.55191-0.51385 0.58522-1.12zm-311.11 0.1c-0.10215-0.25527-0.17798-0.17945-0.19333 0.19333-0.01389 0.33734 0.06174 0.52634 0.16807 0.42 0.10633-0.10633 0.1177-0.38233 0.02526-0.61333zm352.64-0.32c-0.10214-0.25527-0.17798-0.17945-0.19334 0.19333-0.0138 0.33734 0.0618 0.52634 0.16809 0.42 0.10634-0.10633 0.1177-0.38233 0.0253-0.61333zm347.33-0.34889-0.7408-0.71111 0.56192 0.88999c0.30906 0.48949 0.64243 0.80949 0.7408 0.71111 0.0984-0.0984-0.1545-0.49888-0.56192-0.88999zm-409.83 0.24889c-0.1013-0.264-0.24078-0.48-0.30995-0.48-0.0692 0-0.12577 0.216-0.12577 0.48s0.13948 0.48 0.30996 0.48c0.17047 0 0.22707-0.216 0.12576-0.48zm-239.54-1.6085c-0.09853-0.0985-0.27746 0.0791-0.39763 0.39467-0.17366 0.45606-0.1369 0.49282 0.17914 0.17913 0.2187-0.21706 0.31702-0.47527 0.21849-0.5738zm419.3-0.87686c-0.31603-0.31369-0.3528-0.27693-0.17914 0.17913 0.12016 0.31559 0.29911 0.49319 0.39764 0.39467 0.0985-0.0985 1.9e-4 -0.35674-0.2185-0.5738zm-172.52 0.26422c0-0.0776-0.144-0.23012-0.32-0.33889s-0.32-0.0453-0.32 0.14111c0 0.18639 0.144 0.33889 0.32 0.33889s0.32-0.0635 0.32-0.14111zm-34.661-0.87889c-0.10215-0.25527-0.17798-0.17945-0.19333 0.19333-0.0139 0.33734 0.0617 0.52634 0.16807 0.42 0.10633-0.10633 0.1177-0.38233 0.0253-0.61333zm-259.7-2.076c-0.2789-0.47961-0.34134-0.49343-0.34933-0.0773-0.01035 0.5389 0.32614 1.0241 0.55293 0.79733 0.0748-0.0748-0.01682-0.3988-0.2036-0.72zm565.3 0.156c-0.10215-0.25527-0.17799-0.17945-0.19335 0.19333-0.0138 0.33734 0.0618 0.52634 0.1681 0.42 0.10634-0.10633 0.1177-0.38233 0.0253-0.61333zm-520.33-1.3c-0.08877-0.22-0.1614-0.04-0.1614 0.4s0.07263 0.62 0.1614 0.4c0.08877-0.22 0.08877-0.58 0-0.8zm483.52-0.64c-0.0888-0.22-0.16141-0.04-0.16141 0.4s0.0726 0.62 0.16141 0.4c0.0888-0.22 0.0888-0.58 0-0.8zm37.806-0.40847c-0.0985-0.0985-0.27747 0.0791-0.39763 0.39467-0.17366 0.45606-0.13689 0.49282 0.17914 0.17913 0.21869-0.21706 0.31702-0.47527 0.21849-0.5738zm33.979-1.3423c-0.34573-0.53884-0.35539-0.53794-0.18106 0.017 0.10128 0.3224 0.20378 0.8984 0.22775 1.28 0.0435 0.69314 0.0437 0.69313 0.18105-0.017 0.0756-0.39094-0.0269-0.96694-0.22774-1.28zm-215.26-1.7959c0.0901-0.23466-0.0386-0.42666-0.28576-0.42666-0.47936 0-0.5863 0.28985-0.23616 0.64 0.29242 0.29241 0.33444 0.27524 0.52192-0.21334zm-299.7-0.72666c-0.10633-0.10634-0.38234-0.1177-0.61334-0.0252-0.25527 0.10215-0.17945 0.17798 0.19334 0.19333 0.33733 0.0139 0.52633-0.0617 0.42-0.16807zm335.36 0c-0.10633-0.10634-0.38233-0.1177-0.61334-0.0252-0.25526 0.10215-0.17946 0.17798 0.19334 0.19333 0.33732 0.0139 0.52634-0.0617 0.42-0.16807zm-324.49-0.82667c-0.10215-0.25527-0.17798-0.17945-0.19333 0.19333-0.0139 0.33734 0.0617 0.52634 0.16807 0.42 0.10633-0.10633 0.1177-0.38233 0.0252-0.61333zm68.901-0.29777c0-0.176-0.144-0.231-0.32-0.12223s-0.32 0.34177-0.32 0.51777 0.144 0.231 0.32 0.12223 0.32-0.34177 0.32-0.51777zm-148.71-0.61492c-0.09388-0.35898-0.24218-0.58119-0.32957-0.4938-0.17312 0.17311 0.13267 1.1465 0.36017 1.1465 0.07705 0 0.06328-0.29371-0.0306-0.65269zm-13.631-0.36731c-0.10215-0.25527-0.17798-0.17945-0.19333 0.19333-0.01389 0.33734 0.06174 0.52634 0.16807 0.42 0.10633-0.10633 0.1177-0.38233 0.02526-0.61333zm594.98 0.55889c0-0.0776-0.144-0.23012-0.32-0.33889s-0.32-0.0453-0.32 0.14111c0 0.18639 0.144 0.33889 0.32 0.33889s0.32-0.0635 0.32-0.14111zm96-0.17889c0-0.176-0.15251-0.32-0.33888-0.32-0.1864 0-0.24989 0.144-0.14112 0.32s0.26128 0.32 0.33888 0.32 0.14112-0.144 0.14112-0.32zm-403.3-1.02c-0.10215-0.25527-0.17798-0.17945-0.19333 0.19333-0.0139 0.33734 0.0617 0.52634 0.16807 0.42 0.10633-0.10633 0.1177-0.38233 0.0252-0.61333zm270.02-0.9c-0.10877-0.176-0.36928-0.3178-0.57888-0.3151-0.229 3e-3 -0.18954 0.12871 0.0989 0.3151 0.61475 0.39729 0.72553 0.39729 0.48 0zm-398.41-1.232c-0.18031-0.18981-0.78901 0.29124-0.78901 0.62354 0 0.17255 0.20147 0.12806 0.44772-0.0989 0.24625-0.22694 0.39983-0.46304 0.34129-0.52466zm399.12 0.0787c-0.10634-0.10634-0.38234-0.1177-0.61334-0.0252-0.25527 0.10215-0.17946 0.17798 0.19334 0.19333 0.33731 0.0139 0.52634-0.0617 0.42-0.16807zm31.767-0.44666c0-0.176-0.15251-0.32-0.33888-0.32-0.1864 0-0.24988 0.144-0.14112 0.32 0.10877 0.176 0.26128 0.32 0.33888 0.32s0.14112-0.144 0.14112-0.32zm55.899-0.38c-0.10215-0.25527-0.17799-0.17945-0.19335 0.19333-0.0138 0.33734 0.0618 0.52634 0.1681 0.42 0.10633-0.10633 0.11769-0.38233 0.0253-0.61333zm-270.94 0.06c0-0.176-0.15251-0.32-0.33888-0.32-0.1864 0-0.24989 0.144-0.14112 0.32s0.26128 0.32 0.33888 0.32 0.14112-0.144 0.14112-0.32zm20.379-0.38c-0.10214-0.25527-0.17798-0.17945-0.19334 0.19333-0.0138 0.33734 0.0618 0.52634 0.16809 0.42 0.10634-0.10633 0.1177-0.38233 0.0253-0.61333zm-338.89-1.3c-0.08877-0.22-0.1614-0.04-0.1614 0.4s0.07263 0.62 0.1614 0.4c0.08877-0.22 0.08877-0.58 0-0.8zm516.82 0.84667c-0.10634-0.10634-0.38234-0.1177-0.61334-0.0252-0.25527 0.10215-0.17946 0.17798 0.19334 0.19333 0.33731 0.0139 0.52634-0.0617 0.42-0.16807zm-417.67-0.44667c0.10877-0.176-0.0267-0.32-0.30112-0.32-0.27439 0-0.49888 0.144-0.49888 0.32s0.1355 0.32 0.30111 0.32 0.39011-0.144 0.49889-0.32zm218.05-0.11498c-0.0733-0.0632-0.56534-0.21162-1.0933-0.32972-0.70109-0.15683-0.83056-0.12714-0.48 0.11008 0.43213 0.29242 1.8945 0.49656 1.5733 0.21964zm146.18-0.0784c-0.10634-0.10634-0.38234-0.1177-0.61334-0.0252-0.25527 0.10215-0.17946 0.17798 0.19334 0.19333 0.33731 0.0139 0.52634-0.0617 0.42-0.16807zm69.044-0.12301c0.11213-0.18139-0.0163-0.23504-0.30112-0.12576-0.55437 0.21273-0.65577 0.4421-0.19549 0.4421 0.1656 0 0.38909-0.14235 0.49661-0.31634zm-284.72-0.19699c-0.10634-0.10634-0.38234-0.1177-0.61335-0.0252-0.25526 0.10215-0.17945 0.17798 0.19335 0.19333 0.33731 0.0139 0.52633-0.0617 0.42-0.16807zm397.13 38.039c0.748-0.0674 1.972-0.0674 2.72 0s0.136 0.1225-1.36 0.1225-2.108-0.0551-1.36-0.1225zm-123.28-6.2785c-0.704-0.16472-1.3858-0.45873-1.5151-0.65335-0.12931-0.19461-0.23731-0.23767-0.24-0.0957-8e-3 0.43478-1.3415-0.64905-1.9688-1.6005-0.3255-0.49369-0.5928-0.74642-0.59395-0.56162 0 0.1848 0.17789 0.54264 0.39789 0.79521 0.22 0.25256 4e-3 0.11279-0.47876-0.3106-0.48329-0.42339-0.8224-0.82612-0.75356-0.89496 0.0688-0.0688-0.18375-0.46071-0.56125-0.87085-0.94557-1.0272-1.8364-3.7185-1.9806-5.9835-0.0662-1.0402-0.18598-1.9974-0.26614-2.1271-0.29015-0.46949 0.42195-5.2098 0.88115-5.8654 0.25897-0.36977 0.39433-0.87178 0.3008-1.1156-0.0936-0.24379-0.0154-0.44326 0.17408-0.44326 0.18931 0 0.26131-0.216 0.16-0.48s-0.0246-0.48 0.17005-0.48c0.19484 0 0.35424-0.272 0.35424-0.60444 0-0.37926 0.20864-0.58789 0.56-0.56 0.31744 0.0252 0.52048-0.14341 0.46876-0.38924-0.11596-0.55132 0.55245-1.3757 0.92749-1.1439 0.15607 0.0964 0.28487-0.0131 0.28621-0.24352 3e-3 -0.55483 2.6479-2.0679 2.8027-1.6035 0.0639 0.19177 0.32211 0.26967 0.57372 0.17311 0.25162-0.0966 0.3778-0.30446 0.28042-0.46202-0.2576-0.41681 4.3704-0.35197 5.653 0.0792 0.59824 0.20112 1.772 0.8789 2.6083 1.5062 1.1812 0.886 1.4801 1.2864 1.339 1.7943-0.1241 0.44698-0.09 0.52249 0.10771 0.23867 0.23699-0.34019 0.34909-0.34019 0.62096 0 0.54678 0.68423 1.4038 2.4952 1.1808 2.4952-0.11405 0-0.0645 0.18 0.11008 0.4 0.7328 0.92326 1.0919 3.0152 1.0663 6.2107-0.0285 3.5569-0.45289 5.7677-1.2299 6.408-0.25277 0.20829-0.37184 0.52068-0.26457 0.6942 0.10723 0.17352 0.0138 0.51148-0.20797 0.75103-0.22163 0.23954-0.64963 0.86315-0.95111 1.3858-0.3015 0.52264-0.76793 0.93052-1.0365 0.90639-0.26864-0.0241-0.40355 0.0935-0.29981 0.26129 0.23888 0.38654-0.63238 1.0872-2.2794 1.8332-1.5446 0.6995-4.6357 0.9685-6.396 0.5566zm2.2485-0.46539c-0.0985-0.0985-0.35673-2e-4 -0.57382 0.21849-0.31366 0.31604-0.27693 0.35279 0.17914 0.17914 0.31558-0.12017 0.49318-0.2991 0.39468-0.39763zm-9.5565-10.382c-0.0888-0.22-0.16141-0.04-0.16141 0.4s0.0726 0.62 0.16141 0.4c0.0888-0.22 0.0888-0.58 0-0.8zm7e-3 -3.82c-0.10214-0.25527-0.17798-0.17945-0.19334 0.19333-0.0138 0.33734 0.0618 0.52634 0.16809 0.42 0.10634-0.10633 0.1177-0.38233 0.0253-0.61333zm18.021-5.7378c0-0.176-0.144-0.231-0.32-0.12223s-0.32 0.34177-0.32 0.51777 0.144 0.231 0.32 0.12223 0.32-0.34177 0.32-0.51777zm-9.84-4.3342c-0.22-0.0888-0.57999-0.0888-0.79999 0s-0.04 0.16141 0.39999 0.16141c0.44 0 0.62-0.0726 0.4-0.16141zm1.92 0c-0.22-0.0888-0.58-0.0888-0.8 0s-0.04 0.16141 0.4 0.16141 0.62-0.0726 0.4-0.16141zm-75.989 6.8083-0.0688-3.8763-0.10134 3.76c-0.0821 3.0468-0.19046 3.76-0.57117 3.76-0.39478 0-0.46985-0.87252-0.46985-5.4606v-5.4606l5.5486 0.10062c5.4896 0.0996 5.5625 0.11022 6.8473 1.0015 1.3662 0.94771 2.0047 2.4648 2.0036 4.7609 0 1.2659-0.98236 3.3308-1.5301 3.2183-0.21417-0.044-0.35337 0.0974-0.30937 0.31412 0.044 0.21677-0.4457 0.6538-1.0883 0.97119-0.91846 0.45368-2.1328 0.59954-5.68 0.68222l-4.5117 0.10516zm0.16281-5.6197c0.11779-0.92083 0.0786-1.2598-0.11107-0.96-0.27056 0.42765-0.44806 2.8169-0.18698 2.5167 0.0638-0.0733 0.19792-0.77385 0.29805-1.5567zm-358.17-105.94v-24.96h49.276l0.1686 45.92 0.0778-22.96c0.0684-20.161 0.13636-22.96 0.55784-22.96 0.42257 0 0.48 2.9867 0.48 24.96v24.96h-50.56zm49.833 23.807c-0.10633-0.10634-0.38234-0.1177-0.61334-0.0252-0.25527 0.10215-0.17944 0.17798 0.19334 0.19333 0.33733 0.0139 0.52633-0.0617 0.42-0.16807zm-0.34141-1.4867c-0.0888-0.22-0.1614-0.04-0.1614 0.4s0.0726 0.62 0.1614 0.4 0.0888-0.58 0-0.8zm277.87-22.316v-24.956l24.831-0.0839c13.657-0.0461 24.954-8e-3 25.105 0.0855 0.15069 0.0932 0.3169 11.361 0.36935 25.04l0.0953 24.871-50.4-1.8e-4zm48.873 23.803c-0.10634-0.10634-0.38234-0.1177-0.61334-0.0252-0.25527 0.10215-0.17946 0.17798 0.19334 0.19333 0.33731 0.0139 0.52634-0.0617 0.42-0.16807zm200.3-0.0465c0.0314-0.6601 0.0673-11.892 0.08-24.96l0.0231-23.76h50.56v49.92l-50.72 3.8e-4z" fill="#8bbd3a"/>
        <path d="m233.1 342.48c-3.997-1.1215-6.2338-3.211-6.94-6.483l-0.22448-1.04h2.8666c2.8617 0 2.8673 0 3.2512 0.92838 1.0299 2.4865 4.3637 3.5174 8.2279 2.5444 2.9642-0.7464 4.2652-3.0853 4.2652-7.6678v-2.3116l-1.2232 1.3249c-0.67275 0.72874-2.0595 1.7078-3.0816 2.1758-1.6739 0.76633-2.1165 0.83366-4.4568 0.67795-5.1874-0.34506-8.0815-2.5884-9.8289-7.6187-1.0162-2.9253-1.0346-8.3317-0.0368-10.837 1.9983-5.0183 5.5146-7.6802 10.307-7.8028 3.0932-0.0791 4.9943 0.59066 6.7989 2.3952l1.5211 1.5211v-3.1695h5.8083l-0.11476 13.68c-0.11292 13.462-0.12671 13.711-0.86609 15.6-0.98031 2.5051-3.1285 4.6307-5.6667 5.6069-2.4384 0.93789-8.0618 1.1903-10.607 0.47613zm6.8923-14.738c2.3197-0.96925 3.5465-2.7226 4.2334-6.0505 0.74651-3.6165-0.41764-7.8804-2.6076-9.5508-1.6332-1.2457-3.8125-1.6359-5.842-1.0459-2.7911 0.81139-4.4447 3.2804-4.8506 7.2428-0.7004 6.8363 3.8693 11.576 9.0669 9.4044zm425.83 5.7316c-8.7208-1.334-14.549-8.7515-14.549-18.516 0-13.138 10.714-21.491 22.777-17.76 4.8966 1.5146 8.2873 5.1958 9.358 10.16l0.22432 1.04h-6.0439l-0.56871-1.4892c-1.3254-3.4705-4.4004-5.3361-8.7982-5.338-6.4642-3e-3 -10.602 5.2046-10.64 13.389-0.0282 6.1372 2.411 10.837 6.5715 12.661 2.3616 1.0353 6.4171 1.0345 8.781-3e-3 3.053-1.3384 5.2074-4.6145 5.2074-7.9188v-1.0619h-9.28v-4.48h15.04v18.56h-4.0873l-0.22208-1.4809c-0.367-2.4474-0.37488-2.4497-2.5025-0.7353-1.0782 0.86883-2.718 1.8632-3.6439 2.2096-1.6796 0.62842-5.8048 1.0412-7.6242 0.76291zm-616.13-0.66579c-1.8096-0.63917-4.0362-2.8541-4.4816-4.4581-0.82747-2.98-0.21178-5.7706 1.6935-7.6759 1.6196-1.6196 3.2722-2.1634 9.0291-2.9711 5.405-0.75831 6.4997-1.3281 6.5214-3.3942 0.02301-2.1908-1.9032-3.4537-5.2712-3.4562-3.0389-2e-3 -5.0247 1.1006-5.4474 3.0252l-0.20202 0.91981h-2.8546c-2.0713 0-2.8541-0.10976-2.8528-0.4 0.0046-1.0433 0.80688-3.0902 1.6967-4.3293 3.1524-4.3897 13.939-5.1243 18.089-1.2319 2.0945 1.9648 2.1167 2.0755 2.2927 11.401l0.16 8.48 2.4 0.1986v2.0207c0 2.0072-0.0067 2.022-1 2.2207-0.55 0.11002-1.8266 0.2-2.8368 0.2-1.9689 0-3.2938-0.69312-3.6858-1.9284-0.2539-0.79994-0.62852-0.79546-1.7756 0.0214-2.555 1.8193-8.257 2.4939-11.474 1.3575zm9.712-4.7407c2.048-1.0242 2.563-2.0137 2.6954-5.1794l0.11474-2.7432-0.75474 0.22019c-0.41511 0.12112-2.1227 0.42755-3.7947 0.68096-4.0675 0.61642-5.3327 1.0518-6.2603 2.1541-1.535 1.8243-0.71003 4.6479 1.5604 5.341 1.6073 0.49059 5.0118 0.24016 6.4392-0.47367zm49.614 4.7138c-2.9662-1.0257-5.1152-3.137-6.5789-6.4636-0.70656-1.6058-0.7744-2.1805-0.7744-6.56 0-4.7051 0.0196-4.8414 0.99284-6.8952 1.2552-2.6488 2.5324-4.1047 4.5768-5.2174 4.1619-2.2652 10.092-1.5247 13.083 1.6336l1.0528 1.1118-0.0928-6.5967-0.0928-6.5967 5.6 6.4e-4v35.52h-5.44v-2.9749l-0.99025 1.0362c-1.6992 1.7781-3.8731 2.5736-7.0098 2.5652-1.7344-5e-3 -3.3022-0.20864-4.3267-0.56288zm8.0067-4.5084c2.5189-1.1626 4.0072-3.8236 4.2518-7.6018 0.44307-6.8436-3.6884-11.164-9.1302-9.548-6.2097 1.8441-6.965 14.054-1.0538 17.035 1.7645 0.88979 4.1534 0.93616 5.9322 0.1152zm23.182 4.6379c-5.6798-2.1785-8.3146-6.251-8.2947-12.82 0.0134-4.4069 1.2145-7.7069 3.7573-10.323 3.3808-3.4786 9.5934-4.4933 13.939-2.2765 4.1547 2.1196 6.907 6.8318 6.9284 11.862l8e-3 1.8352-19.04 0.1696 0.0982 0.96c0.28688 2.8053 1.6682 5.023 3.7047 5.9478 1.5761 0.71571 4.5672 0.80041 6.0714 0.17193 1.0907-0.45571 3.0858-2.5975 3.0858-3.3126 0-0.29801 0.7397-0.4071 2.76-0.4071h2.76l-0.20361 1.018c-0.51181 2.5591-3.0307 5.3154-6.1419 6.721-1.9663 0.88836-7.5934 1.1592-9.432 0.45399zm10.397-15.52c0.0977-0.15801-0.0608-1.0253-0.3521-1.9273-1.084-3.3564-4.1472-5.1876-7.4816-4.4725-2.6186 0.56159-5.1062 3.3455-5.1062 5.7144v0.97274h6.3811c3.5096 0 6.461-0.12928 6.5587-0.28733zm27.161 15.373c-2.3092-0.79796-4.1156-2.0688-5.0543-3.5558-0.83532-1.3232-1.5904-3.9979-1.2734-4.5108 0.1017-0.16455 1.3848-0.29917 2.8513-0.29917 2.643 0 2.6683 8e-3 2.8828 0.88 0.58847 2.3934 2.5703 3.5817 5.9922 3.593 2.3752 8e-3 3.5856-0.34278 4.6608-1.35 0.86057-0.80614 0.94942-2.333 0.19817-3.4055-0.70735-1.0099-1.9676-1.4873-6.8055-2.5782-2.2656-0.51084-4.6758-1.215-5.356-1.5647-3.2031-1.6471-4.6095-4.8917-3.6373-8.3913 1.6055-5.7792 14.269-7.2188 19.104-2.1718 1.0876 1.1352 2.0162 3.0227 2.0162 4.0983 0 0.60567-0.19812 0.65028-2.8879 0.65028-2.6991 0-2.9061-0.0471-3.166-0.72-0.76838-1.9891-3.5023-3.0345-6.4661-2.4724-1.9573 0.37119-3.1599 1.3426-3.1599 2.5524 0 1.6984 1.8817 2.6188 8.4632 4.1396 5.8093 1.3424 8.1768 3.4983 8.1768 7.4459 0 3.7221-2.5976 6.658-6.8672 7.7615-2.6464 0.684-7.548 0.63264-9.6722-0.10134zm24.408 0.11078c-3.257-1.2452-4.8046-3.5047-4.8195-7.0365-0.0116-2.7289 0.72141-4.3358 2.6534-5.817 1.4518-1.113 3.3562-1.6147 9.6394-2.5395 4.2868-0.63091 5.1377-1.169 5.1377-3.2491 0-1.6842-1.2222-2.8386-3.4529-3.2617-3.2939-0.62468-6.3985 0.55996-7.1089 2.7127l-0.36786 1.1146h-2.8552c-1.5704 0-2.8552-0.11786-2.8552-0.26192 0-0.14405 0.22563-1.0217 0.50142-1.9504 0.63285-2.1311 2.5039-4.2075 4.6064-5.112 3.4671-1.4915 9.3528-1.5311 12.611-0.0849 1.764 0.783 3.6285 2.7038 4.0309 4.1526 0.17977 0.64725 0.32759 4.5839 0.32857 8.7504 9.6e-4 4.1656 0.0892 7.8016 0.19602 8.08 0.12431 0.32394 0.58512 0.50618 1.28 0.50618h1.0858v2.04c0 2.0288-6e-3 2.0411-1 2.24-3.092 0.6184-6.0226-0.15286-6.5186-1.7156-0.11865-0.37383-0.3115-0.63575-0.42857-0.58205s-1.2208 0.59133-2.4528 1.1948c-2.0484 1.0034-2.5273 1.1058-5.6 1.1974-2.4157 0.072-3.7116-0.0342-4.611-0.37811zm9.2881-4.6087c0.72444-0.32899 1.6964-1.0954 2.16-1.7032 0.75349-0.98787 0.84285-1.3857 0.84285-3.7522 0-2.5959-0.0139-2.6429-0.72-2.4309-0.396 0.11894-2.088 0.42531-3.76 0.6808-4.0489 0.61869-5.6645 1.2458-6.4259 2.4944-0.68352 1.121-0.78904 2.4784-0.26829 3.4515 0.92369 1.7259 5.5679 2.4418 8.1713 1.2596zm50.869 4.3683c-4.7531-1.7975-7.5661-6.4111-7.5722-12.419-8e-3 -7.4815 3.8273-12.544 10.426-13.764 2.2152-0.40949 5.3323 0.0344 7.3036 1.04 4.1547 2.1196 6.907 6.8318 6.9284 11.862l8e-3 1.8352-19.04 0.1696 0.0982 0.96c0.28688 2.8053 1.6682 5.023 3.7047 5.9478 1.576 0.71571 4.5672 0.80041 6.0714 0.17193 1.0907-0.45571 3.0858-2.5975 3.0858-3.3126 0-0.29753 0.73207-0.4071 2.72-0.4071 3.1504 0 3.1758 0.0361 1.9102 2.7115-0.97978 2.0711-2.816 3.7961-5.2318 4.915-1.5157 0.70205-2.3265 0.84653-5.1584 0.91936-2.8389 0.073-3.6537-0.0246-5.2536-0.62969zm11.076-16.076c-0.11692-1.1472-1.1902-3.3238-1.9315-3.9171-2.1068-1.6861-3.6361-2.1194-5.8245-1.6501-2.622 0.56231-5.1062 3.3456-5.1062 5.721v0.97936l12.96-0.1732zm60.699 16.3c-1.9092-0.58794-3.8672-2.495-4.616-4.4958-0.50874-1.3593-0.60164-2.8528-0.70954-11.404l-0.12416-9.84h5.7649l0.10195 9.2c0.10912 9.8425 0.16963 10.228 1.8412 11.741 0.8537 0.77257 3.9436 1.0523 5.5969 0.50665 1.456-0.48051 2.9719-2.0604 3.385-3.5279 0.17341-0.616 0.3161-4.9 0.31706-9.52l2e-3 -8.4h5.76v25.6h-5.44v-3.3332l-1.36 1.3296c-1.987 1.9426-3.74 2.6328-6.64 2.6143-1.32-8e-3 -3.0656-0.22023-3.8791-0.47072zm60.16-0.016c-2.1864-0.75527-4.397-2.5927-5.5139-4.583-0.82839-1.4762-0.99591-2.158-1.1084-4.5107-0.10918-2.2839-0.0186-3.0294 0.51575-4.2371 0.85961-1.9433 2.9127-4.1239 5.3933-5.7281l2.0203-1.3065-0.81187-0.96484c-0.44653-0.53067-1.1971-1.7003-1.668-2.5992-1.1474-2.1905-1.2303-6.0577-0.17223-8.0344 1.5374-2.8722 4.3238-4.424 7.9438-4.424 4.8438 0 8.2099 2.8446 8.675 7.331 0.39926 3.8516-1.2177 6.6873-5.55 9.733-0.67242 0.47272-0.64323 0.52731 1.9232 3.597 1.4376 1.7194 2.7284 2.9946 2.8789 2.844 0.15011-0.15012 0.44089-1.1567 0.64617-2.237l0.37325-1.964h2.4868c2.1568 0 2.4861 0.0743 2.482 0.56-0.01 1.1172-0.94912 4.5278-1.7405 6.3174-0.44547 1.0073-0.71174 1.996-0.59165 2.1971 0.12007 0.20105 1.559 1.981 3.1976 3.9555 1.6386 1.9744 2.9793 3.6664 2.9793 3.76 0 0.0935-1.548 0.16253-3.44 0.15332l-3.44-0.017-1.5294-1.8576-1.5294-1.8576-1.3506 1.2438c-0.74282 0.68406-2.1426 1.6343-3.1106 2.1116-1.5256 0.75228-2.2074 0.87852-5.12 0.948-2.4214 0.0577-3.7731-0.0626-4.8388-0.43069zm8.0433-4.6964c0.76183-0.40288 1.8086-1.2556 2.326-1.895l0.94093-1.1625-3.1175-3.945c-1.7146-2.1697-3.2969-4.138-3.5162-4.374-0.33052-0.35568-0.63792-0.28051-1.7982 0.43952-2.9345 1.8211-3.8771 3.204-3.9129 5.7412-0.0331 2.3492 1.0529 4.4129 2.7695 5.2626 1.864 0.92269 4.4896 0.89488 6.3082-0.0668zm0.01-19.312c2.5262-2.3629 2.9051-5.2459 0.94701-7.204-1.6446-1.6446-4.4955-1.1299-5.6029 1.0117-0.6217 1.2022-0.60691 2.6539 0.0401 3.9324 0.67421 1.3323 2.45 3.7215 2.7755 3.7342 0.13955 5e-3 0.96771-0.65797 1.8404-1.4742zm67.597 24.06c-4.2139-1.3169-6.8368-4.2566-7.9282-8.8857-1.3307-5.6442 0.21462-11.349 3.995-14.748 3.3853-3.0436 8.7402-3.8447 12.849-1.922 2.9308 1.3715 4.5349 2.9296 5.9373 5.7672 1.0316 2.0873 1.1984 2.7509 1.3175 5.2413l0.13632 2.8514h-19.047l0.19683 1.662c0.26838 2.266 1.5964 4.3275 3.4123 5.2974 1.2135 0.64812 1.7968 0.75212 3.7087 0.66121 2.6884-0.12781 4.2961-1.011 5.2796-2.9006l0.62461-1.2h2.7351c2.6891 0 2.7313 0.0122 2.5121 0.72-0.77725 2.5094-3.1453 5.5082-5.2312 6.6246-2.3912 1.2797-7.7137 1.7012-10.497 0.8312zm10.465-15.936c-5e-3 -1.2356-1.4788-3.9576-2.6024-4.808-1.3497-1.0213-3.3821-1.5756-4.7911-1.3065-1.3804 0.26358-3.1675 1.154-3.8657 1.9262-0.74211 0.82065-1.842 3.31-1.8506 4.1883l-7e-3 0.72h13.12l-3e-3 -0.72zm81.424 16.1c-3.21-0.76841-5.9547-3.1754-7.5791-6.6468-0.82489-1.7628-1.0075-2.6004-1.1324-5.1956-0.17136-3.5587 0.2073-5.7161 1.448-8.2498 1.727-3.5269 4.8033-5.801 8.7855-6.4945 7.6804-1.3375 14.337 4.6399 14.337 12.874v1.8528h-18.88l3e-3 1.2c4e-3 1.3533 1.1908 4.1201 2.1232 4.9478 1.6446 1.46 5.4006 2.0058 7.5689 1.0999 1.1512-0.48099 3.1047-2.5315 3.1047-3.2588 0-0.37709 0.56359-0.46887 2.8787-0.46887h2.8787l-0.61514 1.6189c-1.2066 3.1756-3.8571 5.6158-7.0832 6.5212-1.8306 0.51376-6.0748 0.62205-7.8381 0.19997zm9.9146-15.661c0.31936-0.5167-0.76249-3.3885-1.654-4.3904-3.1566-3.5477-8.9428-2.5473-10.786 1.865-0.27238 0.65196-0.49526 1.55-0.49526 1.9956v0.81027h6.3811c3.5096 0 6.4591-0.12624 6.5545-0.28051zm20.662 15.678c-1.5849-0.51545-3.0561-1.4351-4.0779-2.5491l-1.04-1.1338v3.325h-5.28v-35.52h5.6v12.926l1.04-1.0054c0.572-0.553 1.904-1.4092 2.96-1.9028 1.6176-0.756 2.298-0.8897 4.32-0.84888 7.2106 0.14554 11.526 5.2047 11.516 13.5-6e-3 4.7349-1.1316 8.1161-3.5227 10.58-2.1175 2.182-3.4948 2.7074-7.3535 2.8052-1.848 0.0468-3.7209-0.0323-4.1621-0.17571zm5.3192-4.8101c2.5902-1.1763 4.0236-4.0868 4.0323-8.1878 0.0118-5.6022-2.7808-9.2248-7.1095-9.2224-4.3928 3e-3 -7.04 3.4182-7.04 9.0837 0 3.8447 1.5282 6.9284 4.1094 8.292 1.5346 0.81072 4.2639 0.8264 6.0077 0.0345zm19.472 4.4625c-3.3854-1.1066-5.6796-3.6901-6.1182-6.8892l-0.1975-1.441h5.767l0.17769 0.88848c0.24919 1.246 1.4203 2.6299 2.6658 3.1503 1.2915 0.53961 4.9985 0.53632 6.4989-6e-3 2.7087-0.97863 2.9843-3.8535 0.49767-5.1926-0.704-0.37907-3.1904-1.1348-5.5254-1.6794-7.3384-1.7116-9.366-3.4052-9.3476-7.8075 0.0198-4.7145 4.0085-7.422 10.873-7.3806 5.011 0.0303 8.2396 1.6975 9.8076 5.0647 1.246 2.6757 1.2073 2.7234-2.2076 2.7154l-2.96-7e-3 -0.48-1.0253c-0.264-0.56388-0.97152-1.3078-1.5723-1.6531-2.3357-1.3425-7.3988-0.43976-7.6542 1.3647-0.32848 2.3206 0.80121 3.0588 6.7222 4.392 6.1192 1.3778 8.7386 2.9748 9.5251 5.8068 1.0815 3.8945-0.76099 7.3704-4.9004 9.2444-1.7306 0.78355-2.4104 0.89916-5.8004 0.98672-3.1459 0.0812-4.1891-0.015-5.7713-0.53216zm126.73 0.33049c-1.4179-0.34518-2.7486-1.1162-3.92-2.2712l-1.04-1.0255v2.9559h-5.44v-35.52h5.44v6.4c0 3.52 0.0873 6.4 0.19396 6.4 0.10665 0 0.47212-0.35367 0.81216-0.78593 0.34-0.43227 1.5786-1.2588 2.7525-1.8366 1.883-0.92702 2.4184-1.0456 4.5478-1.0078 4.7892 0.0852 8.0472 2.1471 10.166 6.4341l1.2071 2.4419v4.6572c0 4.0845-0.0892 4.8736-0.71773 6.4172-1.1471 2.8171-2.8562 4.8032-5.159 5.9953-1.8705 0.96832-2.2325 1.0423-4.9502 1.0119-1.6126-0.0179-3.364-0.13792-3.892-0.26647zm5.2742-4.8178c5.2649-2.686 5.4153-13.251 0.23402-16.445-2.8995-1.7875-6.9643-0.99978-8.7843 1.7022-2.5565 3.7955-2.0764 10.884 0.92672 13.683 1.8642 1.7377 5.3463 2.2219 7.6236 1.0602zm-431.69 4.3038c-1.6576-0.51088-2.6134-1.4224-3.14-2.9945-0.23642-0.70582-0.36436-4.1052-0.36436-9.6801v-8.5923h-4.16v-4.1295l4-0.1906 0.0902-3.76 0.0901-3.76h5.7397v7.68h5.12v4.16h-5.12v7.9388c0 9.469-0.0945 9.1812 3.0142 9.1812h2.1058v4.2363l-1.2 0.19836c-1.9338 0.31965-4.6092 0.19495-6.1757-0.28784zm196.26 0.18253c-1.3576-0.32256-2.5074-1.0974-3.2036-2.1588-0.49991-0.76221-0.57565-1.9143-0.66247-10.076l-0.098-9.215h-2.062c-1.1341 0-2.062 0.12506-2.062 0.2779s-0.972 0.26554-2.16 0.25045c-2.667-0.0339-4.4928 0.8203-5.7214 2.6768-1.3864 2.095-1.7081 4.2719-1.7136 11.595l-5e-3 6.64h-5.76v-25.6h5.44l0.0189 2.16c0.0157 1.8033 0.0818 2.0594 0.4 1.5506 1.7395-2.7809 4.4385-4.4246 7.3518-4.4772 1.2074-0.0218 1.9407 0.11169 2.1097 0.38404 0.17783 0.28659 0.85165 0.38691 2.1494 0.32l1.8903-0.0975 0.0901-3.76 0.0902-3.76h5.3994l0.0902 3.76 0.0901 3.76 5.28 0.1858v4.1341h-5.44l8e-3 6.96c7e-3 6.8309 0.224 9.0796 0.94349 9.7991 0.19846 0.19846 1.2897 0.36086 2.4249 0.36086h2.064v4.2363l-1.2 0.19836c-1.561 0.25802-4.445 0.20522-5.752-0.10531zm-502.81-17.769v-17.76h6.08v14.08h16.32v-14.08h6.08v35.52h-6.08v-16h-16.32v16h-6.08zm63.04 4.96v-12.8h5.44v3.3332l1.36-1.3313c2.0142-1.9717 4.0416-2.7751 6.96-2.7579 2.9511 0.0174 5.2585 0.92325 6.856 2.6915 1.7737 1.9633 1.8795 2.6782 2.0222 13.664l0.12993 10h-5.8082v-8.3043c0-9.2815-0.22469-11.018-1.5954-12.331-2.5081-2.4029-7.4517-1.1943-8.9924 2.1984-0.5358 1.1799-0.59887 2.2092-0.60517 9.8772l-7e-3 8.56h-5.76zm87.04-4.96v-17.76h5.44v35.52h-5.44zm122.56 4.96v-12.8h5.44v3.6352l1.1282-1.3181c1.6986-1.9844 4.2361-3.1014 7.0204-3.0904 3.1298 0.0124 5.2547 0.79479 6.8454 2.5205 2.1224 2.3025 2.286 3.3269 2.286 14.311v9.5419h-5.7244l-0.0978-9.36c-0.0948-9.0751-0.11978-9.3954-0.82061-10.522-0.86347-1.3885-2.1978-2.0065-4.2649-1.9753-2.3327 0.0352-4.0972 1.1524-5.1723 3.275l-0.88 1.7374v16.845h-5.76zm73.92 0v-12.8h5.092l0.0957 2.32c0.0862 2.0914 0.13299 2.2363 0.47468 1.47 1.2426-2.7866 5.6746-5.1925 8.4445-4.5841l0.93318 0.20496v5.4284l-1.3828-0.20736c-3.0806-0.46196-6.0757 1.4036-7.2372 4.5079-0.59642 1.594-0.6601 2.4732-0.6601 9.1123v7.348h-5.76zm80.216-4.9498-5.9245-17.77h6.5322l4.2712 13.52c2.3492 7.436 4.377 13.721 4.5064 13.966 0.14967 0.28384 0.53357-0.47229 1.0561-2.08 0.45149-1.3892 2.4228-7.4939 4.3806-13.566 1.9579-6.072 3.6186-11.22 3.6906-11.44 0.0931-0.28455 1.053-0.4 3.3259-0.4h3.195l-4.1718 12.24c-2.2945 6.732-5.0023 14.688-6.0173 17.68l-1.8455 5.44-7.0745 0.1804zm86.824 4.9498v-12.8h5.44v4.32l0.58774-0.96c1.6213-2.6483 5.4094-4.6464 7.9168-4.176l1.093 0.20505v5.4673l-1.31-0.22133c-1.9745-0.33358-4.0365 0.37468-5.5776 1.9158-2.0607 2.0606-2.3924 3.7401-2.3924 12.11v6.939h-5.76v-12.8zm17.6 0v-12.8h5.76v25.6h-5.76zm147.84 0v-12.8h5.12v1.6c0 0.88 0.0724 1.6 0.16083 1.6 0.0885 0 0.66868-0.56213 1.2894-1.2492 1.3785-1.5258 3.2565-2.4386 5.5898-2.7169 3.126-0.37279 6.606 1.0032 7.846 3.1024l0.54675 0.92556 1.3236-1.2956c1.9951-1.9528 4.0175-2.7434 6.9768-2.7272 1.5212 8e-3 3.0026 0.22332 3.8996 0.5659 1.7464 0.66695 3.561 2.5844 4.0241 4.2524 0.20634 0.74312 0.34019 5.2074 0.34128 11.383l3e-3 10.16h-5.3893l-0.10538-9.36c-0.11059-9.8268-0.20934-10.518-1.6752-11.735-1.3403-1.1123-4.9931-0.97073-6.4705 0.25081-0.37418 0.30936-0.95018 1.0579-1.28 1.6633-0.53859 0.98868-0.6097 2.0219-0.69795 10.141l-0.0983 9.04h-5.7235l-0.0179-9.2c-0.0202-10.221-0.14464-11.037-1.8348-12.021-2.6258-1.5282-6.1985-0.2931-7.5332 2.6044-0.64106 1.3916-0.69718 2.098-0.79882 10.057l-0.10931 8.56h-5.3858v-12.8zm74.24-4.96v-17.76h6.4v14.091l16.16-0.171v-13.92l6.24 3.1e-4v35.52l-6.24 2.6e-4v-15.84l-16.16-0.171v16.011h-6.4zm-222.08-15.04v-2.72h5.76v5.44h-5.76zm24.96-185.76v-91.52h49.6v18.675l1.166-1.4176c2.4264-2.9498 9.0478-9.1806 11.963-11.257 5.8475-4.1654 12.657-7.0129 19.831-8.2932 5.2293-0.93311 14.354-0.93397 19.52-2e-3 10.677 1.9264 19.077 5.7509 27.374 12.463 10.322 8.3496 17.928 20.151 21.907 33.989 2.6798 9.32 3.3642 14.768 3.3369 26.562-0.024 10.423-0.48714 14.803-2.3854 22.566-5.7746 23.617-20.502 40.912-40.822 47.94-6.8563 2.3714-13.125 3.2599-21.212 3.0064-15.223-0.47719-26.24-5.2768-37.079-16.154l-3.6-3.6126v58.574h-49.6v-91.52zm80.911 11.187c6.0868-0.76322 11.369-3.3624 15.907-7.8272 4.721-4.6449 7.3814-9.6388 8.7929-16.505 0.59312-2.8853 0.66627-4.0907 0.54215-8.9352-0.12016-4.6909-0.27706-6.1043-0.96647-8.7065-2.6992-10.189-9.917-18.151-19.2-21.182-10.057-3.283-21.156-0.52815-28.409 7.0515-5.2589 5.4958-8.1611 12.095-8.9417 20.332-1.4014 14.789 5.5233 28.163 17.361 33.531 4.7314 2.1453 9.7115 2.8938 14.914 2.2415zm-607.06 41.14c-15.957-2.2645-27.969-10.277-34.011-22.686-5.4842-11.265-6.0837-25.444-1.5857-37.504 4.8133-12.905 15.936-21.711 32.308-25.58 6.9986-1.6539 9.8542-1.918 20.64-1.9087 9.404 8e-3 10.464 0.0682 15.806 0.89644 5.3706 0.83263 12.332 2.4291 15.514 3.5581 0.77013 0.27322 1.5439 0.49677 1.7194 0.49677 0.48825 0 0.079-7.2028-0.53501-9.4166-2.2468-8.1008-8.1498-13.069-17.945-15.103-2.3297-0.4838-4.2862-0.59766-10.24-0.59588-11.676 4e-3 -20.522 1.5673-32.921 5.8195-2.7944 0.95841-5.1878 1.6241-5.3187 1.4793-0.23294-0.25769-0.73179-1.9265-6.9181-23.143-1.6678-5.72-3.1074-10.652-3.199-10.96-0.10459-0.35157 0.0053-0.56 0.29516-0.56 0.25396 0 1.2357-0.34076 2.1816-0.75725 4.9692-2.188 15.531-5.3483 23.058-6.8996 9.8265-2.0252 18.041-2.7971 30.502-2.8664 25.833-0.14371 42.751 5.1378 54.725 17.083 9.1044 9.0833 13.453 19.665 14.861 36.16 0.20269 2.3751 0.32897 20.229 0.33101 46.8l3e-3 42.96h-48.64v-7.2c0-3.96-0.0749-7.2-0.16653-7.2-0.0916 0-1.2076 1.0152-2.48 2.256-7.8432 7.6483-17.365 12.528-28.393 14.55-4.0955 0.75088-15.274 0.9343-19.592 0.32149zm31.432-30.9c9.4361-1.4888 16.336-7.2902 18.943-15.928 0.50084-1.6593 0.68233-3.4003 0.80979-7.7684l0.16428-5.6298-1.2385-0.49319c-1.781-0.70921-5.5889-1.727-8.9185-2.3838-2.1942-0.43282-4.4039-0.5651-9.28-0.55556-5.5798 0.0109-6.7257 0.10255-8.9414 0.71499-9.1095 2.5179-13.931 8.2968-13.931 16.697 0 7.8243 4.1127 12.988 11.992 15.057 2.548 0.66894 7.1806 0.79827 10.4 0.29033zm167.36-42.227v-70.724l49.44 0.164 0.32 18.831 0.94991-1.2556c3.0356-4.0126 10.457-10.728 14.9-13.482 11.004-6.8207 23.845-8.919 37.576-6.1399 11.644 2.3567 21.686 9.3436 27.547 19.166 0.68256 1.144 1.2837 2.1408 1.3358 2.2151 0.0521 0.0743 2.146-1.8824 4.653-4.3482 6.5666-6.4586 12.422-10.617 19.019-13.506 14.64-6.4113 34.509-6.2333 47.779 0.42802 12.401 6.2248 20.587 18.097 23.176 33.611 1.099 6.585 1.1747 10.682 1.0787 58.4l-0.0949 47.2-49.419 0.164-0.094-41.202-0.094-41.202-0.84329-3.0624c-1.2476-4.5309-2.8146-7.3966-5.5135-10.083-3.513-3.4969-7.313-4.9636-12.86-4.9636-9.9152 0-16.765 5.5419-19.58 15.841-0.47933 1.7537-0.54954 6.063-0.70413 43.228l-0.17171 41.28-49.097 0.164-0.11293-40.882c-0.0994-36.007-0.17383-41.151-0.62375-43.14-2.4389-10.782-8.9452-16.462-18.858-16.462-4.0144 0-5.8939 0.40419-9.1836 1.975-3.7178 1.7752-6.2763 4.3934-8.1817 8.3731-2.7732 5.792-2.5502 1.8368-2.7372 48.532l-0.16597 41.44-49.44 0.164z" fill="#272e58"/>
    </g>
</svg>
