<?xml version="1.0" encoding="utf-8"?>
<svg version="1.1" id="Layer_2" xmlns="http://www.w3.org/2000/svg" xmlns:xlink="http://www.w3.org/1999/xlink" x="0px" y="0px"
	 width="187.1px" height="59.1px" viewBox="0 0 187.1 59.1" style="enable-background:new 0 0 187.1 59.1;" xml:space="preserve">
    <style type="text/css">
        .st0{fill:#0C2340;}
    </style>
    <g id="Gruppe_835" transform="translate(12803 7558)">
        <path id="Pfad_5130" fill="#00857C" d="M-12775.8-7530.8c7.5,0,13.6,6.1,13.6,13.6c7.5,0.1,13.7-6,13.7-13.5
            c0.1-7.5-6-13.7-13.5-13.7c-0.1,0-0.2,0-0.2,0C-12762.2-7536.9-12768.3-7530.8-12775.8-7530.8L-12775.8-7530.8 M-12789.4-7517.2
            c0.1,7.5,6.2,13.6,13.7,13.5c7.4-0.1,13.4-6.1,13.5-13.5H-12789.4z M-12789.4-7517.2c0-7.5,6.1-13.6,13.6-13.6
            c-7.5,0-13.6-6.1-13.6-13.6l0,0c-7.5,0.1-13.6,6.2-13.5,13.7C-12802.8-7523.2-12796.8-7517.2-12789.4-7517.2 M-12789.4-7544.4
            c0.1-7.5,6.2-13.6,13.7-13.5c7.4,0.1,13.4,6.1,13.5,13.5H-12789.4z"/>
    </g>
    <g id="Gruppe_836" transform="translate(12803 7558)">
        <g id="Gruppe_834" transform="translate(-12734.3 -7508.34)">
            <path id="Pfad_5114" class="st0" d="M0,9.2v-9h1.8v9L0,9.2z"/>
            <path id="Pfad_5115" class="st0" d="M3.4,9.2v-9h1.7l3.7,6v-6h1.8v9H8.9L5.2,3.2v6.1L3.4,9.2z"/>
            <path id="Pfad_5116" class="st0" d="M14.7,9.2c-0.7-1.5-1.3-3-1.9-4.6c-0.5-1.5-0.9-3-1.1-4.5h1.9c0.2,1.2,0.5,2.4,0.8,3.6
                c0.3,1.1,0.7,2.3,1.2,3.5c0.5-1.2,0.9-2.4,1.2-3.5c0.3-1.2,0.6-2.4,0.8-3.6h1.8c-0.3,1.5-0.7,3.1-1.2,4.6c-0.5,1.5-1.1,3-1.8,4.5
                L14.7,9.2z"/>
            <path id="Pfad_5117" class="st0" d="M20.7,9.2v-9h5.9v1.5h-4.1v2.2h3.9v1.5h-3.9v2.4h4.1v1.5H20.7z"/>
            <path id="Pfad_5118" class="st0" d="M27.5,9.2v-9h1.7l3.7,6v-6h1.8v9H33l-3.7-6.1v6.1L27.5,9.2z"/>
            <path id="Pfad_5119" class="st0" d="M42.8,0.2v1.5h-2.6v7.5h-1.8V1.7h-2.6V0.2H42.8z"/>
            <path id="Pfad_5120" class="st0" d="M43.9,9.2v-9h1.8v9L43.9,9.2z"/>
            <path id="Pfad_5121" class="st0" d="M47.6,9.2v-9h1.7l3.7,6v-6h1.8v9h-1.7l-3.7-6.1v6.1L47.6,9.2z"/>
            <path id="Pfad_5122" class="st0" d="M59.8,9.4c-2.6,0-3.9-1.5-3.9-4.6c-0.1-1.2,0.3-2.5,1-3.5c0.7-0.9,1.9-1.4,3-1.3
                c0.6,0,1.2,0.1,1.7,0.3c0.5,0.2,1,0.5,1.5,0.9l-0.8,1.2c-0.3-0.3-0.7-0.5-1.1-0.6c-0.4-0.1-0.8-0.2-1.2-0.2
                c-0.7-0.1-1.4,0.2-1.8,0.8c-0.4,0.8-0.6,1.6-0.5,2.5c-0.1,0.8,0.1,1.7,0.5,2.4c0.4,0.5,1,0.8,1.6,0.7c0.5,0,1-0.1,1.4-0.5
                c0.3-0.4,0.5-1,0.4-1.5V5.5h-1.9V4h3.7v1.8c0.1,1-0.2,1.9-0.9,2.7C61.8,9.2,60.8,9.5,59.8,9.4z"/>
            <path id="Pfad_5123" class="st0" d="M68,9.2v-9h5.7v1.5h-3.9v2.4h3.7v1.5h-3.7v3.6L68,9.2z"/>
            <path id="Pfad_5124" class="st0" d="M78.6,9.4c-1.1,0.1-2.2-0.4-2.9-1.2c-1.4-2.2-1.4-4.9,0-7.1c1.6-1.6,4.2-1.6,5.9,0
                c1.4,2.2,1.4,4.9,0,7.1C80.8,9.1,79.7,9.5,78.6,9.4z M78.6,7.9c0.6,0,1.2-0.2,1.6-0.8c0.7-1.6,0.7-3.3,0-4.9c-0.7-0.9-2-1-2.9-0.3
                c-0.1,0.1-0.2,0.2-0.3,0.3c-0.7,1.6-0.7,3.3,0,4.9C77.4,7.7,78,8,78.6,7.9z"/>
            <path id="Pfad_5125" class="st0" d="M83.7,9.2v-9h3.2c0.9-0.1,1.8,0.2,2.6,0.7c0.6,0.5,0.9,1.3,0.9,2c0,0.6-0.1,1.1-0.4,1.6
                C89.5,5,89,5.4,88.5,5.5c0.4,0.5,0.8,0.9,1.1,1.3c0.3,0.4,0.5,0.8,0.8,1.2c0.2,0.4,0.4,0.8,0.6,1.3h-2c-0.2-0.4-0.4-0.8-0.6-1.2
                c-0.2-0.4-0.5-0.8-0.7-1.1c-0.3-0.4-0.6-0.8-1-1.2h-1.2v3.5L83.7,9.2z M86.8,1.6h-1.3v2.7h1.3c0.5,0,0.9-0.1,1.3-0.3
                c0.3-0.2,0.5-0.6,0.4-1C88.5,2.1,87.9,1.6,86.8,1.6L86.8,1.6z"/>
            <path id="Pfad_5126" class="st0" d="M95.2,9.2v-9H97v7.5h3.9v1.5L95.2,9.2z"/>
            <path id="Pfad_5127" class="st0" d="M102,9.2v-9h1.8v9L102,9.2z"/>
            <path id="Pfad_5128" class="st0" d="M105.4,9.2v-9h5.8v1.5h-3.9v2.4h3.7v1.5h-3.7v3.6L105.4,9.2z"/>
            <path id="Pfad_5129" class="st0" d="M112.5,9.2v-9h5.9v1.5h-4.1v2.2h3.9v1.5h-3.9v2.4h4.1v1.5H112.5z"/>
        </g>
        <path id="Pfad_5131" class="st0" d="M-12672.2-7522.2l-2.4,0v-17.3h2.4c6.6,0,9,4.3,9,8.6S-12665.6-7522.2-12672.2-7522.2
            M-12671.8-7544.4h-8.7v27.2h8.7c7.2,0,14.5-4.2,14.5-13.6C-12657.3-7540.2-12664.6-7544.4-12671.8-7544.4 M-12683.6-7536.3
            c0-5.4-4.1-8.5-9.1-8.5c-4.9,0-10.2,2.9-10.2,8.4c0,4.8,5.3,7.3,8.4,8.1c1.7,0.4,5.9,0.9,5.9,3.9c0,2.9-2.9,3.6-5.1,3.6
            c-2.8,0-4.5-2-4.3-5h-5.6c-0.2,6.8,4.4,9.3,9.8,9.4c6.2,0.1,11-2.5,11-8.5c0-6-5.4-7-9.6-8.3c-1.6-0.5-4.6-1-4.6-3.8
            c0-2.3,2-3.4,4.1-3.4c2.6,0,4,1.3,4.2,4H-12683.6z M-12714.2-7544.4h8.4v27.2h-6.3v-18.3l-8,18.3l-8.4-18.3v18.3h-5.8v-27.2h8.3
            l6,14.1L-12714.2-7544.4z"/>
    </g>
</svg>