<?xml version="1.0" standalone="no"?>
<!DOCTYPE svg PUBLIC "-//W3C//DTD SVG 20010904//EN"
 "http://www.w3.org/TR/2001/REC-SVG-20010904/DTD/svg10.dtd">
<svg version="1.0" xmlns="http://www.w3.org/2000/svg"
 width="700.000000pt" height="700.000000pt" viewBox="0 0 700.000000 700.000000"
 preserveAspectRatio="xMidYMid meet">
<metadata>
Created by potrace 1.14, written by Peter Selinger 2001-2017
</metadata>
<g transform="translate(0.000000,700.000000) scale(0.100000,-0.100000)"
fill="#000000" stroke="none">
<path d="M735 6832 c6 -5 78 -55 160 -112 784 -540 1441 -1134 1683 -1522 l42
-68 0 -1576 0 -1577 -41 -76 c-172 -315 -509 -688 -955 -1058 -227 -189 -605
-466 -807 -593 -37 -23 -66 -44 -64 -46 13 -13 501 187 742 305 511 249 901
524 1480 1045 28 25 54 45 59 46 13 0 166 -130 166 -142 0 -22 -450 -458 -605
-587 -212 -177 -517 -405 -739 -553 -100 -66 -182 -122 -184 -123 -21 -19 486
186 659 266 399 183 816 445 1127 707 29 24 58 42 65 39 7 -3 69 -47 137 -99
351 -266 727 -500 1100 -687 208 -103 549 -261 566 -261 4 0 -58 48 -137 107
-428 317 -834 667 -1167 1008 -106 108 -192 200 -190 205 7 19 131 121 143
116 7 -2 87 -65 178 -139 618 -504 1032 -780 1567 -1047 113 -56 245 -121 295
-142 175 -78 250 -109 240 -100 -5 5 -84 64 -175 132 -722 539 -1336 1135
-1649 1602 l-51 76 0 1575 0 1575 88 113 c359 462 974 1007 1665 1476 172 117
176 120 107 93 -30 -12 -71 -28 -90 -35 -99 -36 -395 -167 -545 -241 -488
-239 -949 -562 -1618 -1133 -16 -14 -24 -9 -97 64 -44 44 -80 85 -80 91 0 17
315 321 478 462 288 248 615 499 926 710 82 56 146 102 143 102 -12 0 -304
-118 -435 -176 -456 -202 -803 -408 -1215 -723 -77 -58 -146 -111 -156 -118
-14 -11 -27 -4 -86 43 -354 283 -778 543 -1211 743 -235 108 -605 257 -579
233 6 -6 80 -58 165 -118 324 -225 658 -482 935 -721 146 -125 455 -419 455
-433 0 -7 -160 -147 -185 -162 -6 -4 -80 62 -165 145 -295 290 -587 512 -990
755 -182 109 -582 312 -792 401 -159 67 -379 148 -363 133z m2799 -1666 l26
-45 0 -1569 0 -1569 -26 -47 c-14 -25 -27 -46 -29 -46 -2 0 -17 22 -34 48
l-31 49 0 1564 0 1564 33 47 c17 27 33 48 34 48 0 0 13 -20 27 -44z"/>
</g>
</svg>
